<?xml version="1.0" encoding="UTF-8"?>
<svg id="Layer_1" data-name="Layer 1" xmlns="http://www.w3.org/2000/svg" viewBox="0 0 405.41 407.02">
  <defs>
    <style>
      .cls-1 {
        fill: #fff;
        fill-rule: evenodd;
      }
    </style>
  </defs>
  <g id="SvgjsG10065">
    <path class="cls-1" d="m49.88,159.67c28.3-5.69,57.52-4.89,85.46,2.34,32.07,7.13,66.98,21.43,101.8,33.9,34.81,12.47,70.29,22.96,102.46,22.5,22.98.15,45.63-5.54,65.81-16.54-.1-10.23-.95-20.44-2.54-30.54-22.59,7.06-46.69,7.82-69.68,2.19-30.54-6.41-63.16-22.29-95.69-37.97-32.52-15.68-65-31.05-95.54-36.7-28.19-6.21-57.65-2.61-83.52,10.18-20.12,10.72-38.18,24.92-53.34,41.94-2.32,9.03-4.02,18.22-5.09,27.49,15.8-8.26,32.55-14.57,49.88-18.78Z"/>
    <path class="cls-1" d="m345.65,260.24c-34.05,3.92-71.26-3.46-108.16-12.67-36.9-9.21-74.16-20.05-108.36-23.62-30.54-3.77-61.53-1.15-91.01,7.69-13.69,4.07-25.75,9.11-35.63,12.83,2.63,13.25,6.57,26.21,11.76,38.68,4.78,0,9.87,0,15.27-.36,31.06-1.41,62.18.14,92.94,4.63,35.63,4.78,75.33,14.51,114.88,20.36,39.55,5.85,79.2,7.79,114.88-2.8,11.66-3.35,22.93-7.96,33.59-13.74,7.28-15.22,12.62-31.29,15.88-47.84-17.4,9.23-36.44,14.95-56.04,16.85Z"/>
    <path class="cls-1" d="m201.81,0c-40.51-.06-80.12,12.01-113.71,34.66,20.37,1.31,40.34,6.34,58.89,14.86,28.5,12.01,59.5,30.84,90.5,48.51,31,17.66,61.79,33.24,90.5,39.4,21.66,5.43,44.42,4.66,65.66-2.24C364.72,54.09,287.91-.03,201.81,0Z"/>
    <path class="cls-1" d="m337.61,355.27c-31.91,7.79-66.17,7.89-100.12,5.09-41.74-3.31-83.47-10.18-121.29-11.71-18.95-1.07-37.95-1.07-56.9,0,76.53,75.2,198.29,78.09,278.31,6.62Z"/>
  </g>
</svg>