<?xml version="1.0" encoding="UTF-8"?>
<svg id="Layer_1" data-name="Layer 1" xmlns="http://www.w3.org/2000/svg" viewBox="0 0 3222.42 527.48">
  <defs>
    <style>
      .cls-1 {
        fill: none;
        stroke: #EBECED;
        stroke-linecap: round;
        stroke-linejoin: round;
        stroke-width: 2px;
      }

      .cls-2 {
        fill: #EBECED;
      }
    </style>
  </defs>
  <path class="cls-1" d="m246.46,487.65c2.46-6.6-.41-13.42.93-20.12,1.19-5.96.91-6.02,6.57-6.02h2"/>
  <path class="cls-1" d="m747.87,440.4c11.37-8.24,22.63-16.61,32.99-26.14"/>
  <path class="cls-1" d="m1445.74,320.26c-19.66,1.09-39.33.23-58.99.48-.33,0-.67-.31-1-.48"/>
  <path class="cls-1" d="m1486.73,363.49c16.5-.3,33,.47,49.49-.5"/>
  <path class="cls-1" d="m2279.09,408.73c1.48-4.23-.48-8.86,1.93-13.11,4.83-8.53,11.2-13.86,21.56-14.15,13.08-.36,22.66,8.33,24,22.73"/>
  <path class="cls-1" d="m2135.12,508.76c-11,.17-22.03.93-32.98.31-8.84-.5-17.73.96-26.51-.82"/>
  <path class="cls-1" d="m3039.95,494.69c-1.47-7.85-.1-15.75-.32-23.63-.55-20.09-.35-40.21-.08-60.32.08-5.86-.87-11.76.4-17.6"/>
  <path class="cls-1" d="m2661.52,344.89c-10.32.82-20.66.41-30.99.5"/>
  <path class="cls-1" d="m2683.02,420.29c4.68-4.27,8.18-9.63,14.93-11.77,7.44-2.36,13.6-1.23,19.55,3.24.75.56,1.33,1.34,2.01,1.99,3.49,3.39,5.79,6.73,12.62,5.03,8.69-2.16,17.27,1.33,21.91,10.54.57,1.14,1.63,2.03,2.46,3.03"/>
  <path class="cls-1" d="m597.89,507.26c22.83,0,45.66-.18,68.49.09,8.84.1,17.65-1.08,26.51-.19,2.72.27,4.87-1.69,6.49-3.93"/>
  <path class="cls-1" d="m1711.69,362.99c-6.17.17-12.33.34-18.5.5"/>
  <path class="cls-1" d="m1383.25,388.12c-4.21-.29-6.21,3.44-8.31,5.7-5.74,6.21-12.81,10.6-19.19,15.9-2.11,1.75-4.34,3.34-6.48,5.05-.89.71-1.68.77-2.51-.01"/>
  <path class="cls-1" d="m966.33,457.49c8.59,3.36,12.41,2.13,17.51-5.52,2.13-3.2,4.07-6.41,5.62-10,3.1-7.14,13.54-11.96,21.36-10.62,1.16.2,2.45.74,3.48.44,5.04-1.49,9.57-.1,14.02,2.08"/>
  <path class="cls-1" d="m2220.6,522.84c.33-13.74,1.18-27.49.88-41.22-.49-22.29-.16-44.57-.42-66.86-.04-3.77.34-7.43,1.29-11.06"/>
  <path class="cls-1" d="m2698.51,523.85c-.29-8.71-1.48-17.37-.61-26.15.47-4.8-.22-9.71-.39-14.57"/>
  <path class="cls-1" d="m1422.24,462.01c-1.93,7.27-8.65,10.15-13.63,14.42-3.67,3.15-7.96,5.71-11.9,8.66-.62.46-1.64.38-2.47.54"/>
  <path class="cls-1" d="m809.85,359.97c-8.67-.73-17.32-.66-26-.16-2.24.13-6.07,2.47-6.99-2.35"/>
  <path class="cls-1" d="m3164.43,404.71c-1.27,2.89-1.57,5.89-1.54,9.05.11,12.23.05,24.46.03,36.7,0,1.68-.1,3.34-.42,5.04-1.36,7.33-3.2,8.71-10.56,7-6.33-1.47-10.87-5.68-15.58-9.94-8.67-7.83-11.5-18.68-15.84-28.78-.69-1.61-.53-3.65-.55-5.5-.06-6.7.24-13.42-.1-20.1-.32-6.34.89-12.01,3.91-17.69,2.05-3.85,3.16-8.16,5.52-12.07,4.89-8.12,11.68-13.9,19.66-18.48,5.61-3.22,11.88-2.54,17.98-2.51,10.51.04,18.13,6.04,24.94,13.1,6.74,7,10.81,15.41,13.25,25.03,2.72,10.73,4.46,21.31,2.26,32.22-3.26,16.18-10.3,30.33-23.5,40.66-5.75,4.5-12.75,6.06-19.95,6.6"/>
  <path class="cls-1" d="m2004.14,467.04c1.44-4.42,3.89-8.72,1.53-13.59-.2-.41-.03-.99-.03-1.5,0-13.24-.04-26.48.02-39.71.03-5.03.31-10.05.48-15.08"/>
  <path class="cls-1" d="m646.38,487.65c3.17.65,6.22-.86,9.53-.17,2.74.57,5.83-3.52,5.96-6.87.27-6.87-.37-13.71-.18-20.62.42-14.9-.15-29.82-.32-44.73-.05-4.78-2.02-6.93-7-7-9.33-.14-18.66-.15-27.99,0-5.62.1-7.44,2.63-7.47,10.51-.09,20.27-.03,40.55-.03,60.83,0,6.03,1.99,7.71,7.99,8.12,6.19.42,12.34-.16,18.5-.08"/>
  <path class="cls-1" d="m3162.93,523.34c0-13.91-.02-27.82.01-41.72.01-4.86-1.39-9.75.45-14.59.9-2.37-1.87-3.22-2.47-5.01"/>
  <path class="cls-1" d="m617.89,346.4c-10.33,1.7-20.66-.93-30.99,0"/>
  <path class="cls-1" d="m1289.27,401.19c-.36-5.09,5.83-6.11,6.5-10.56,6.18-1.82,10.55-6.24,15.02-10.53.34-.33.98-.36,1.48-.52"/>
  <path class="cls-1" d="m2883.48,420.29c-2.39.15-1.81-1.6-2.03-3.01-1.19-7.72.31-15.42.02-23.13-.12-3.19-.33-6.37-.49-9.55"/>
  <path class="cls-1" d="m2378.57,327.04c-10.33.26-20.67-.02-30.99.03-6.47.03-13.03-1.29-19.5.23"/>
  <path class="cls-1" d="m1070.31,490.17c-.33-.67-.69-1.33-1-2.01-4.21-9.51-2.09-12.82,8.02-14.97,3.18-.68,6.64-1.48,9.97-.11"/>
  <path class="cls-1" d="m1002.82,119.43c-5.35-6.14-3.18-12.92-.32-18.76,5.41-11.1,15.41-13.17,27.77-7.52,2.56,1.17,4.98,1.63,7.54,1.34,4.72-.53,8.56.8,11.5,4.58"/>
  <path class="cls-1" d="m713.37,348.41c-3.59-5.96-4.06-12.41-3.01-19.1.05-.33-.14-.82.03-.98,5.67-5.5,3.48-11.84,1.98-18.12"/>
  <path class="cls-1" d="m2342.58,522.84c.47-7.53-.99-15.1.48-22.62.52-2.67-.74-5.07-1.47-7.54-.48-1.63-1.87-2.67-.7-5.12,2.19-4.6,2.52-9.74,1.82-15-.48-3.6.37-7.36.35-11.04-.09-12.07-.6-24.14-.35-36.19.14-6.81.57-13.46-1.43-20.17-.69-2.32,1.16-5.29,1.25-7.99.32-10.38.4-20.78.56-31.16"/>
  <path class="cls-1" d="m2799,449.45c-1.1-5.05,3.44-6.5,6.11-8.39,8.08-5.74,15.12-12.68,22.89-18.75"/>
  <path class="cls-1" d="m51.99,522.84c1.65-17.9.89-35.86.98-53.79.1-20.44,0-40.89.04-61.33,0-2.18.31-4.36.48-6.53"/>
  <path class="cls-1" d="m2795,328.8c-5.83-2.57-11.98-1.3-18-1.47-6.49-.18-13-.04-19.5-.04"/>
  <path class="cls-1" d="m1496.73,522.84c.98-26.3.94-52.63.13-78.91-.26-8.57,1.65-17.12-.06-25.66-.28-1.39-.05-2.96.3-4.54.96-4.3,3.1-6.34,7.62-6.59,7.68-.42,15.32-.38,23.01-.04,8.48.37,16.99-.26,25.49-.35,2.5-.03,5,.44,7.5.45,12.17.06,24.38-1.03,36.48-.67,11.33.33,22.7.2,34.01.33,11.12.13,22.3.78,33.5.04,11.78-.78,23.65-.17,35.48-.17"/>
  <path class="cls-1" d="m2136.61,522.84c.72-6.53-.19-13.08-.25-19.6-.06-6.58,1.65-13.21.52-19.57-1.21-6.88,1.2-13.38.39-20.17-.77-6.44-.17-13.05-.17-19.58v-58.81c0-6.53-.22-13.08.06-19.6.28-6.71-1.36-13.24-.42-20.16.85-6.3.69-13.13.06-19.53-.65-6.67,2.2-13.4-1.21-20.16-3.42-2.02-7.56-2.63-12-1.52-1.1.27-2.32.04-3.49.04h-278.95c-25.33,0-50.66-.01-75.99.01-4.5,0-9-1.22-13.5-.01"/>
  <path class="cls-1" d="m811.85,350.42c-.63-2.18-1.05-4.04-.19-6.6,1.97-5.85-.92-9.61-7.31-9.92-6.98-.33-14.04-.59-20.98.1-4.76.47-9.51-1.25-13.98-.05-10.22,2.74-20.38-1.07-30.53.34-3.42.48-6.41-1.31-9.49-2.48"/>
  <path class="cls-1" d="m191.47,337.6c-1.16-1.18-2.63-.72-4-.75-11-.26-22.01.55-32.99-.51"/>
  <path class="cls-1" d="m669.88,333.33c1.66-5.42,1.38-11.15,3.35-16.64,4.82-13.47,21.41-22.79,37.16-16.06,2.66,1.14,4.25,3.11,5.49,5.56"/>
  <path class="cls-1" d="m3057.45,445.93c.27-13.91-.62-27.83.53-41.72.39-4.73-1.45-9.33-.58-14.09.25-1.36.45-2.27,2.05-2"/>
  <path class="cls-1" d="m660.38,420.79c-7.21.52-14.34-.93-21.5-.87-6.34.05-12.67,1.21-19,1.88"/>
  <path class="cls-1" d="m2304.58,427.33c-.19-4.23-.48-8.17-4.89-10.74-1.49-.87-1.77-3.84-2.6-5.85-3.04-.32-5.36-1.46-7.68-3.84-2.04-2.09-5.78-1.16-8.82-1.18"/>
  <path class="cls-1" d="m2784,494.69c-1.09-1.71-1-3.62-1-5.53,0-31-.03-62,.05-93,0-3.52.61-7.04.96-10.56.16-1.64-.75-1.01-1.5-.75"/>
  <path class="cls-1" d="m1796.18,135.52c-16.99,1.32-33.99.85-50.99.25"/>
  <path class="cls-1" d="m1103.3,456.49c-3.06.13-5.97.21-9.06,1.35-8.42,3.11-13.21.81-17.95-7.38-3.49-6.03-5.72-13.03-12.48-16.62-1.29-.68-2.42-1.44-4.01-1.53-7-.4-14.01-1.46-20.99-1.28-4.48.11-9.65.32-11.64,6.31-.6,1.81-2.95,2.99-4.34,4.59-3.56,4.07-2.64,7.3,2.48,9.04,1.31.45,2.5,1.36,4,1"/>
  <path class="cls-1" d="m244.46,415.01c-2.34-1.05-2.76,1.39-3.98,2.29-7.87,5.81-15.66,11.74-23.54,17.54-1.89,1.39-2.39,4.18-4.98,4.8"/>
  <path class="cls-1" d="m1285.27,460.51c6.09-7.68,14.88-12.14,21.99-18.6,2.36-2.15,5.38-3.58,7-6.53"/>
  <path class="cls-1" d="m2701.01,159.65c-4.41-2.22-9.5-1.3-14.03-3.19-2.04-.85-3.69,1.5-5.97,1.53-10.33.11-20.66.57-31,.91"/>
  <path class="cls-1" d="m1266.77,523.34c-4.27,2.22-8.72,2.49-13.51,2.14-5.29-.39-10.65.33-15.99.35-16.66.06-33.33.03-49.99.01-2.59,0-5.3.52-7.51-1.49-.09-.08-.34-.05-.49,0-6.79,2.06-13.67.37-20.49.62-1.94.07-3.92.91-6,.9-15.16-.04-30.34.35-45.48-.22-5.45-.21-11.26,1.08-16.52-1.78-.52-.28-1.42-.26-1.96,0-5.62,2.67-11.33,1.03-17.01.45-.35-.04-.75-.54-.99-.45-9.52,3.46-19.36.76-29,1.56-9.51.79-19.04.74-28.49.22-7.32-.4-14.67.92-22.13-1.4-3.15-.98-7.93,1.04-11.86.48-8.62-1.23-16.94,1.76-25.52,1.23-8.3-.51-16.67.15-24.99-.2-6.35-.26-12.69.1-18.99-.13-5.54-.2-11-1.53-16.51.2-.3.1-.69.09-.99,0-8.29-2.56-16.66.03-25-.4-8.14-.42-16.34-.44-24.49,0-9.84.53-19.68.06-29.5.5-4.73.21-9.14-2.93-13.44-1.85-4.38,1.11-8.6,1.85-13.06,1.78-2.93-.04-5.83.06-8.52-1.5-1.05-.61-2.16-.48-3.51-.13-10.05,2.64-20.27,1.52-30.47,1.17-8.99-.32-17.99-.07-26.99-.04-.5,0-1.15.61-1.48.44-6.53-3.37-13.02.17-19.52.07-18.16-.26-36.35.12-54.48-.68-15.33-.68-30.76,2.82-46.03-1.22-2.31-.61-4.68,1.95-7.46,1.92-14.33-.11-28.73.77-42.96-.41-6.89-.57-13.68.49-20.56-.39-3.99-.51-8.3,1.28-12.46-.26"/>
  <path class="cls-1" d="m2525.54,423.31c1.22-2.39,2.53-4.39,4.89-6.18,9.26-7.02,18.11-14.6,27.09-21.99.44-.37.68-.99,1.01-1.49"/>
  <path class="cls-1" d="m1548.22,375.55c0,31.84-.46,63.68.2,95.51.33,15.77-.96,31.5-.25,47.26.27,5.97-1.38,7.48-7.45,7.52-11.66.07-23.33.01-34.99.03-1.59,0-3.02-.37-4.53-.95-2.8-1.07-5.58-1.9-8.57.3-1.27.94-3.6.75-5.4.58-10.33-.93-20.67-.31-31-.41-3.13-.03-6.12-.32-9-1.56"/>
  <path class="cls-1" d="m382.93,103.6c-.5-1.51-.92-3.05-1.51-4.52-3.52-8.72-2-15.18,5.57-20.53,3.94-2.79,13.02-4.48,19.45,1.41,1.7,1.56,3.43,2.23,6.01,1.6,15.24-3.71,23.26,1.16,30.22,13.63,2.62,4.69,4.89,7.4,10.15,9.2,7,2.4,13.18,7.27,16.45,14.34,1.61,3.47,3.73,4.66,7.14,4.99,8,.79,14.58,8.9,16.44,16.07,1.12,4.31-1.84,12.59-9.41,16.63-1.96,1.05-3.87,1.47-6.03,1.47-37.33-.02-74.65,0-111.98-.06-2.33,0-4.67-.63-7-.96"/>
  <path class="cls-1" d="m2939.47,506.75c0-.17,0-.34,0-.5.32-5.02,1.99-9.77.75-15.14-1.17-5.09-.25-10.67-.25-16.03v-89.98"/>
  <path class="cls-1" d="m2583.28,464.53c1.84-4.06,5.62-6.54,8.89-8.85,6.46-4.55,12.26-9.84,18.31-14.83,1.45-1.19,2.85-1.54,4.54-1.45"/>
  <path class="cls-1" d="m2201.1,524.35c-.54-5.43,1.72-10.19,3.48-15.09,3.96-10.98-.34-20.48-10.38-26.3-6.13-3.56-12.15-3.56-18.59-2.85"/>
  <path class="cls-1" d="m396.43,337.6c1.25-.69,2.52-1.42,4-1.24,17.31,2.13,34.67-.25,51.99.49,3,.13,6,.33,9,.5"/>
  <path class="cls-1" d="m1401.25,469.05c3.85-.84,5.6-4.44,8.41-6.64,2.52-1.97,5.05-3.56,7.95-4.51q5.56,3.88,13.63,2.61"/>
  <path class="cls-1" d="m760.36,372.54c-.17-12.06-.33-24.13-.5-36.19"/>
  <path class="cls-1" d="m2621.28,480.11c.67-1.03.07-1.05-.75-1.01-6.33.3-12.66-.54-19.01.4-3.07.46-6.32-.35-9.48-.37-5.5-.02-11.13.56-16.47.11-4.91-.41-9.68-.24-14.53-.19-12.33.14-24.66.04-36.99.06-2.23,0-4.44.06-6.5-1.01-1.27-.66-2.41-1.27-4.02-.55-5.66,2.57-11.6,1.77-17.47,1.01-3.13-.41-5.96,1.03-9,1.06-7.02.07-13.93-1.51-21-1.12-3.67.2-4.51-2.76-4.5-5.94.02-5.86,0-11.73,0-17.59,0-16.59-.03-33.18.01-49.77.01-5.36.67-10.68.11-16.1-.47-4.54,2.32-6.99,6.87-7.01,13-.05,26.06-.76,38.97.32,5.83.49,11.36-.2,17.03-.28,12.33-.17,24.71-.74,36.98.17,9.08.68,18-.7,27.02-.31,8.82.38,17.67.31,26.49,0,6.07-.21,8.68,1.51,8.51,8.62-.28,11.9.86,23.79.05,35.7-.1,1.45-1.24,3.94,1.93,4.02"/>
  <path class="cls-1" d="m2558.29,149.85c.22-1.35.45-2.69.67-4.02,13.91,0,27.74,0,41.58,0,1.86,0,3.78-.32,5.5.75"/>
  <path class="cls-1" d="m2045.63,392.14c1.38-4.1,4.15-5.67,8.5-5.6,12.16.2,24.33.31,36.49-.03,6.77-.19,13.45-.5,19.28,1.27,2.55,2.72-.54,6.35,2.72,8.38"/>
  <path class="cls-1" d="m3029.95,326.04c1,.42,2.01,1.21,3,1.2,10.33-.17,20.68.62,31-.44"/>
  <path class="cls-1" d="m2611.28,414.76c-8.75,7.21-17.52,14.38-26.22,21.65-1.55,1.29-2.82,2.89-5.02,2.99"/>
  <path class="cls-1" d="m330.44,453.97c1.5-5.36-.27-10.72-.03-16.09.33-7.33,5.35-11.93,12.54-11.63,3.25.13,4.57,2.92,7,4.1"/>
  <path class="cls-1" d="m619.89,465.03c13.66-.91,27.33-.68,40.99,0"/>
  <path class="cls-1" d="m3023.96,511.28c10.5-.16,21,.3,31.5-.44,2.97-.21,5.99.28,8.99.44"/>
  <path class="cls-1" d="m2784.5,384.1c2.89-1.16,5.87-1.55,9-1.55,26.33.07,52.67-.38,78.98.25,10.03.24,19.99-.68,30-.29,9.82.38,19.66.06,29.49.11,1.5,0,3.36-.19,4.43.58,2.71,1.97,5.33,1.5,7.49-.2,1.87-1.48,3.39-.48,5.08-.4,6,.29,11.99.23,18,.14,20.99-.35,41.99-.14,62.99-.13,7.91,0,8.44.45,9.46,8.55.18,1.39.62,2.09,2.04,2.01"/>
  <path class="cls-1" d="m1076.81,490.17c3.31-5.81,8.92-10.2,10.5-17.09"/>
  <path class="cls-1" d="m1285.77,413.76c7.83-6.7,15.72-13.34,23.46-20.15,1.86-1.64,5.05-1.82,5.54-4.98"/>
  <path class="cls-1" d="m1398.75,460c2.1-4.49,6.45-6.62,10.03-9.52,5.73-4.65,11.91-8.78,17.27-13.82,1.34-1.26,2.89-.49,3.69-1.8"/>
  <path class="cls-1" d="m181.97,294.62c-.17-8.88-.46-17.76-.47-26.64-.01-10.25,4.23-10.9,10.47-10.59,6.32.32,12.66.49,18.99.5,7.7.02,8.86,2.23,8.94,9.58.09,9.05-.27,18.1-.44,27.14"/>
  <path class="cls-1" d="m2607.03,326.79c14.15,1.01,28.33.31,42.49.47,2.66.03,5.33-.44,8-.44,4.61,0,5.94,1.32,6.49,6,.04.33-.02.67,0,1,.31,4.12-2.32,8.43-1.19,11.96,1.37,4.26.67,8.11.72,12.17.05,4.27-2.12,5.79-6.03,5.53-4.23-.29-8.33.06-12,2.52"/>
  <path class="cls-1" d="m213.46,466.54c-.84-2.39.2-4.45,2.04-5.45,7.03-3.81,12.39-9.66,18.5-14.61,3.44-2.79,7.29-5.08,10.96-7.59"/>
  <path class="cls-1" d="m2135.12,494.69c-13.5,0-27.03.59-40.48-.18-11.69-.67-23.38-.11-34.99.13-7.96.16-16.06-1.12-24.01.53-.8.17-1.77.29-2.48-.02-7.46-3.23-15.03.08-22.51-.51-5.35-.43-10.67,1.53-16,.05"/>
  <path class="cls-1" d="m1752.18,495.19c3-.17,6-.48,9-.48,30.66-.04,61.32-.12,91.98.07,5.1.03,10.16,1.13,14.52-2.99.82-45.36.45-91.11-.02-136.85"/>
  <path class="cls-1" d="m2997.46,342.37c-3.93.32-7.74.23-11.12,3.39-2.96,2.77-6.27,1.13-9.42-3.35-.92-1.31-.9-3.17-2.5-3.94,1.8-5.14,3.49-10.22,9.54-11.68"/>
  <path class="cls-1" d="m1169.79,472.57c0-12.73-.3-25.48.06-38.2.96-33.85.15-67.7.43-101.54.07-8.16-1.88-10.12-9.99-10.02-5.03.06-10.2-.9-14.97,1.53-.83.42-1.21.39-2.05,0-5.95-2.77-12.3-1.19-18.48-1.52-2.15-.12-4.74.29-5.35,2.52-.62,2.26-.39,4.8,1.31,7.03,4.05,5.31,9.38,4.84,15.05,4.04,6.61-.94,7.21-6.21,8.49-11.11"/>
  <path class="cls-1" d="m2277.59,409.23c2.1-.32,1.82,1.15,2.04,2.51,1.08,6.7,10.07,17.91,18.94,17.32,5.3-.35,11.04.68,15.95-1.38,9.09-3.81,12.98-12.33,10.99-22.33,4.82-1.18,9.65-1.56,14.57-.64"/>
  <path class="cls-1" d="m679.38,431.1c7.92-2.49,11.44-10.67,18.47-14.38,3.68-1.95,6.48-5.15,9.6-7.9,1.71-1.5,2.46-3,2.43-5.11"/>
  <path class="cls-1" d="m2325.08,405.71c-3.61.03-6.96.28-9.69-3.37-1.39-1.87-4.78-2.23-7.34-3.3-1.44-6.52-1.43-6.48-8.47-5.44-1.12.16-2.33-.29-3.49-.46"/>
  <path class="cls-1" d="m307.44,380.08c.86-7.86.38-15.75.5-23.63"/>
  <path class="cls-1" d="m3065.95,523.34c0-6.7.05-13.41-.02-20.11-.05-4.96-5.86-8.87-10.47-7-2.14.87-4.4,1.47-6.49.9-9.54-2.64-18.99.79-28.52.2-9.46-.59-18.99-.13-28.49-.13s-19,.06-28.49-.02c-7.17-.06-14.33-.31-21.5-.48"/>
  <path class="cls-1" d="m1890.66,110.13c-.29-2.84.03-5.67-.37-8.56-.66-4.72,5.38-11.62,10.87-12.03,1.66-.12,3.35-.17,4.99.01,4.4.49,7.65-.68,10.64-4.45,4-5.06,9.53-8.19,16.36-7.62,4.57.38,7.87-.83,10.65-4.96,2.73-4.05,6.49-7.5,11.85-8.15,4.68-.56,3.99-4.65,4.41-7.55,1.17-8.2,12.81-14.17,20.09-10.03,2.86,1.63,5.67,3.34,8.5,5.02"/>
  <path class="cls-1" d="m220.71,444.42c4.42-3.35,8.8-6.75,13.28-10.01.97-.7,1.12-1.73,1.72-2.55"/>
  <path class="cls-1" d="m980.32,145.82c1-1.51,2.37-2.89,2.94-4.55,2.89-8.39,9.02-13.84,16.02-18.64,1.11-.76,1.71-2.29,2.54-3.46"/>
  <path class="cls-1" d="m332.69,142.31c1.79-7.3,4.21-14.09,11.72-17.65,3.34-1.58,6.75-1.1,10.01-.81,3.96.36,6.66-1.23,8.44-4.2,3.67-6.12,8.76-9.7,15.43-12.37,3.87-1.55,6.91-3.9,11.14-1.91"/>
  <path class="cls-1" d="m799.36,507.76c-1.5-.34-3.03-1.05-4.49-.93-4.7.39-8.14-1.65-11-5.1"/>
  <path class="cls-1" d="m257.45,522.84v-54.79c0-18.1-.06-36.19.02-54.29.04-8.83,1.85-10.35,9.48-10.13,3.16.09,6.06-.89,8.58-3.36,2.44-2.39,5.42-2.48,8.46-.15,2.66,2.03,4.44,6.21,8.94,4.57,3.17-1.16,6.77-.95,9.55-3.45,1.56-1.4,3.62-2.23,5.45-3.32"/>
  <path class="cls-1" d="m2111.62,396.16c-1.1,5.33-.39,10.73-.43,16.09-.08,9.55-.24,19.1.33,28.66.36,6.17-.27,12.39-.39,18.59-.09,4.81-1.1,5.98-6.01,6.01-11.33.07-22.66.02-33.99.02-6.33,0-12.66,0-19,0-5.36,0-5.92-.51-5.98-6.03-.07-6.53-.11-13.07,0-19.6.25-14.24-.56-28.49.25-42.74.04-.77,1.7-4.69-2.27-4.26"/>
  <path class="cls-1" d="m706.37,476.09c2.31-2.51,5.18-3.11,8.5-3.07,10.33.13,20.66.13,30.99,0,3.31-.04,6.19.56,8.5,3.07"/>
  <path class="cls-1" d="m2559.54,418.28c-7.6,7.92-17.12,13.51-25.11,20.99-1.72,1.61-2.97,4.1-5.64,4.64"/>
  <path class="cls-1" d="m449.42,380.08c1.4,4.96,2.21,9.9,1.05,15.09-1.4,6.27-3.71,8.28-11.05,8.51-2.93.09-5.87-.12-8.5,1.54"/>
  <path class="cls-1" d="m1599.21,443.92c-.83-8.73-.77-17.46.62-26.12.22-1.36.58-2.82.31-4.02-2.79-12.5-.14-25.18-1.43-37.72"/>
  <path class="cls-1" d="m610.39,358.46c-4.25,1.41-8.64.91-13,1.02-3.5.09-7,.32-10.5.49"/>
  <path class="cls-1" d="m2253.59,523.34c.14-4.56-1.94-7.7-5.39-10.68-3.68-3.17-3.36-12.92-.66-17,4.12-6.24,9.84-8.77,17.05-8.51"/>
  <path class="cls-1" d="m2867.48,432.86c-9.21,7.48-19.35,13.83-27.53,22.59-.6.64-1.64.87-2.47,1.29"/>
  <path class="cls-1" d="m883.34,523.34c-.17-13.41-.43-26.81-.46-40.22-.02-7.43,7.51-11.85,13.98-8.59,3.27,1.65,4.04,4.33,3.98,7.58-.16,8.55-.48,17.09-.44,25.64.03,5.2.61,10.39.94,15.58"/>
  <path class="cls-1" d="m681.13,454.73c8.74-7.34,18.66-13.17,26.81-21.3,1.39-1.39,2.45-2.66,2.69-4.59"/>
  <path class="cls-1" d="m2844.49,467.54c-.38-4.29,3.3-6.34,5.67-8.34,3.75-3.17,7.15-7.57,12.83-7.74"/>
  <path class="cls-1" d="m800.86,522.84c-.71-11.06.22-22.13.35-33.17.12-10.24.07-20.44-.01-30.67-.06-7.13-1.53-14.47.6-21.63.46-1.54.27-3.36.03-5-1.59-11.07-1.06-22.12,0-33.19.08-.81.29-1.68-.44-2.54-3.36-3.95-2.16-7.79.47-11.54"/>
  <path class="cls-1" d="m2221.1,464.03c-15.52,1-25.77-8.21-33.21-19.79-7.6-11.83-12.04-25.28-9.86-40.05.61-4.13.33-8.36.97-12.57,1.98-13.08,7.27-24.38,16.63-33.64,10.1-9.98,22.65-13.05,35.89-9.77,7.69,1.91,14.36,7.08,19.68,13.68,4.14,5.14,7.68,10.46,9.9,16.67.65,1.83.81,4.11,3.49,4.28"/>
  <path class="cls-1" d="m450.92,522.84c-.94-25.46-.43-50.94-.42-76.41,0-6.54.68-13.06-.06-19.61-.42-3.69.09-7.36,2.03-10.52,2.13-3.47,1.1-6.25-1.04-9.09-1.23-1.63-2.34-3.34-3.51-5.02"/>
  <path class="cls-1" d="m653.38,443.42c-11.33-1.26-22.66-.02-33.99,0"/>
  <path class="cls-1" d="m1938.15,389.12c1.22,7.01.47,14.07.49,21.11.03,14.08-.05,28.15.03,42.23.07,13.38.13,13.35-13.01,13.08-10.5-.22-20.98,1.11-31.5.05-4.06-.41-6.15-1.78-5.92-6.09.97-18.1-1.12-36.2.36-54.3.31-3.81-.39-7.7-.4-11.56,0-5.49,1.55-6.95,6.97-7.04,12.5-.22,25.01.49,37.49-.48.67-.05,1.3.09,2.03.41,5.64,2.5,9.3,1.17,11.85-5.01,1.37-3.3,3.38-4.91,6.62-5.48"/>
  <path class="cls-1" d="m2867.98,523.85c-.17-1.17-.39-2.34-.49-3.52-.66-7.77,1.41-9.24,8.93-11.29,6.8-1.85,12.99.92,19.58.46,11.61-.81,23.31-.23,34.98-.23,1,0,2.27.4,2.96-.06,4.58-3.11,9.06-.12,13.54.16,4.35.27,6.32,2.88,6.49,7.45.08,2.18.01,4.36.01,6.53"/>
  <path class="cls-1" d="m211.46,354.94c3.38-.73,7.05-1.46,9.87.67,1.58,1.19,2.6.57,3.6.26,7.82-2.35,15.68-1.92,23.5-.33,1.91.39,3.4-.43,5.02-.48,7.66-.23,15.36-1.58,23,.37,1.14.29,2.53.84,3.46.44,6.38-2.71,13.12-1.81,19.51-1.21,9.41.89,18.68-.94,28.02-.24,2.53.19,5.19-.4,7.46,1.08.73.48,1.42.58,2.03.41,9.3-2.59,18.62-1.12,28.02-.78,5.02.18,10.31-.6,15.49-.68,3.2-.05,6.45-.32,9.49,1,3.38,1.46,6.34-1.08,9.5-.95,7.01.28,14.18-1.34,20.98,1.5.83.35,1.21.34,2.05,0,7.31-2.93,15.02-1.77,22.45-1.28,4.27.28,8.27.68,12.54-.17,4.9-.98,7.75-3.45,6.88-8.14-1.07-5.77-2.38-11.28-.09-17.18.8-2.07-.17-5.05-.88-7.45-1.64-5.49.67-10.73.58-16.11-.11-6.73-2.08-8.12-8.01-8.1-25.66.12-51.32.05-76.99.05s-50.99.02-76.49-.02c-3.5,0-7-.32-10.5-.48-1.39-.06-2.82-.11-2.5,2.01"/>
  <path class="cls-1" d="m2860.98,344.39c0-.84.34-2.17-.05-2.44-4.66-3.22-2.75-7.2-1.26-11.7,6.75.97,13.18-3.33,20.33-1.52,2.07.52,4.1-2.3,6.48-.67"/>
  <path class="cls-1" d="m1676.2,429.09c2.85-.51,4.27-2.76,6.04-4.74,5.24-5.84,12.21-6.5,19.45-6.07"/>
  <path class="cls-1" d="m2881.98,507.26c.03-3.11-.42-6.13-1.5-9.05-.3-.81-.85-1.26-.63-2.54,1.9-10.97,1.73-22.08,1.55-33.15-.05-3.04.47-5.71,1.37-8.61.87-2.78,2.38-2.4,4.2-2.45"/>
  <path class="cls-1" d="m2477.05,510.78c-9.5,0-19,.03-28.49-.01-5.36-.03-10.71-.09-16,1.02"/>
  <path class="cls-1" d="m2685.52,459c-.23,1.7.42,3.41-.93,5.09-1.42,1.78-1.63,4.13-1.6,6.48.08,8.38-.11,16.76.07,25.13.17,7.57,1.37,9.24,8.96,9.07,4.33-.1,8.67.07,13-.04,4.92-.13,6.92-2.08,6.97-7.01.1-9.72,0-19.44.05-29.16.02-3.82-1.42-6.13-5.52-6.03-7,.17-14.02-.47-21,.5"/>
  <path class="cls-1" d="m364.93,397.67c1.41-7.71-.2-15.42,0-23.12.05-2.18.12-4.36-.03-6.53-.08-1.18-.93-.31-1.46-.25"/>
  <path class="cls-1" d="m782.86,500.22c-11.98,1.54-24-.01-36,.21-11.63.22-23.33.06-34.99-.19-.83-.02-1.67.31-2.5.48"/>
  <path class="cls-1" d="m535.4,448.94c-3.78,2.27-7.72,2.87-12.02,1.59-1-.3-2.03-.92-3.53-.18-4.87,2.41-9.69.47-14.45-.9"/>
  <path class="cls-1" d="m1702.69,522.84c.17-31.84.59-63.68.28-95.51-.06-6.46,1.47-13.33-1.72-19.64-.13-.26-.66-.7-.13-1.52,3.58-5.46,1.15-11.71,1.83-17.58.49-4.19-1.34-8.64-.26-13.04"/>
  <path class="cls-1" d="m153.97,353.43c5.48.77,10.55,2.78,16.54,1.79,7.66-1.28,15.54-1.42,23.53.39,4.19.95,9.15-1.73,13.92-1.16,1.43.17,3.57-.84,3.5,2"/>
  <path class="cls-1" d="m2959.97,255.91c-5.13-.05-10-.69-15.1-2.15-6.06-1.73-12.91-1.07-19.39-.75-5.36.26-10.65.43-16.01-.02-3.79-.32-7.67.13-11.49.43-5.17.41-10.22-1.19-15.54-.24-3.61.64-7.13,1.19-10.46,2.73"/>
  <path class="cls-1" d="m2456.06,325.28c-.17,2.18-.45,4.36-.48,6.54-.09,7.03-4.81,11.96-12.02,11.99-2.79.01-4.59,2.97-7.5,2.08"/>
  <path class="cls-1" d="m2439.56,494.19c-.17-1.84-.48-3.69-.48-5.53-.03-35.02-.07-70.04.02-105.06.02-5.87.62-11.73.95-17.59"/>
  <path class="cls-1" d="m224.46,316.24c-17.42-3.05-35-.89-52.49-1.48-5.83-.2-11.66-.03-17.5-.03"/>
  <path class="cls-1" d="m314.44,157.13c-4.44,1.34-9,.78-13.5.71-10.83-.18-21.67.6-32.5-.37-1.95-.18-3.99.75-5.99,1.17"/>
  <path class="cls-1" d="m3057.45,494.69c.27-8.71-1.01-17.53.63-26.11,1.36-7.11-1.28-13.74-1.13-20.64"/>
  <path class="cls-1" d="m529.4,464.03c3.52,1.73,6.82,2.26,9.51-1.5,1.53-2.14,1.23-8.9-.49-11.58-.78-1.22-2.53-1.44-2.6-3.5-.26-7.76-6.52-10.55-11.88-14.14-1.36-.91-2.65-.99-4.04-.92-3.71.18-13.41,7.03-13.85,10.55-.5,4.01-2.19,7.19-4.06,10.59-2.64,4.78-1.15,9.06,2.91,12.52"/>
  <path class="cls-1" d="m2515.05,483.63v-99.03"/>
  <path class="cls-1" d="m1499.23,407.72c-2.5-4.07-2.81-8.36-2.1-13.08.93-6.14-1.27-12.38.1-18.58"/>
  <path class="cls-1" d="m2222.1,464.53c12.07.22,21.25-4.96,28.59-14.5,4.14-5.38,7.94-10.91,10.33-17.2,5.12-13.5,7.81-27.33,3.57-41.7-.77-2.62-2.3-5.16-1-8.04"/>
  <path class="cls-1" d="m1051.81,493.68c-1.99-3.48,1.03-5.86,2.11-8.5,2-4.86.59-8.41-4.61-8.49-7.49-.1-14.99-.48-22.5.31-5.62.59-11.27-.68-17-.04-5.61.63-7.83,3.5-5.46,8.66.81,1.76,1.97,3.37,2.97,5.04"/>
  <path class="cls-1" d="m193.97,397.92c.83.42,1.91.63,2.46,1.29,3.95,4.75,8.65,5.19,14.57,4.2,6.83-1.14,11.94-5.31,11.93-12.28-.02-9.72-.32-19.44-.44-29.16-.02-1.67.31-3.35.47-5.03"/>
  <path class="cls-1" d="m2802.99,431.35c.17-.67.11-1.62.53-1.97,4.44-3.59,8.97-7.07,13.46-10.61,1.58-1.25,3.23-1.39,5-.5"/>
  <path class="cls-1" d="m1517.23,223.74c.17,15.08.42,30.16.47,45.24.03,8.04-.29,16.09-.47,24.13-.18,7.8.51,8.48,8,8.56,24,.24,47.99.11,71.99.25,16.15.09,32.33-.21,48.49-.16,9.49.03,18.99-.47,28.51.26,6.02.46,8.12-1.7,8.07-7.9-.21-23.29-.08-46.58-.08-69.87"/>
  <path class="cls-1" d="m595.39,523.34c.04-3.71-.29-7.44.98-11.07,1.51-4.3-.59-8.38-.98-12.56"/>
  <path class="cls-1" d="m1348.76,388.62c9.41-5.72,18.21-12.27,25.95-20.16,1.97-2.01,5.51-2.78,5.55-6.49"/>
  <path class="cls-1" d="m1445.74,480.61c2.1-.32,2.02,1.11,2,2.51-.12,7.71-1.4,15.31-.33,23.17.54,3.93.8,8.33.35,12.52-.53,4.97-1.89,6.93-6.52,6.94-7.99.02-15.99.48-24.01-.3-4.44-.43-8.99.37-13.49.37-41.33.04-82.65.02-123.98.03-4.28,0-8.49-.37-12.5-2.01-1.75-13.55.1-16.03,13.99-15.45,11.68.49,23.34-.02,35,.4,3.83.14,7.65.79,11.5.22"/>
  <path class="cls-1" d="m2556.54,341.37c-2.33,2.57-5.05,4.18-8.48,2.47-3.17-1.59-4.58-4.18-4.65-8-.07-4,1.22-6.74,4.63-8.54,3.72-1.96,8.39,1.48,8.55,6.02.1,2.79-1.42,5.96,1.44,8.3"/>
  <path class="cls-1" d="m1445.74,336.85c-3,.17-6,.48-9,.48-26.83.04-53.66.02-80.49.03-1.67,0-3.33.16-5,.24"/>
  <path class="cls-1" d="m714.37,348.91c8.51-1.98,10.66-9.77,13.84-16.17,2.93-5.89-3.19-21.69-8.85-25.04-2.05-1.21-3.9-1.8-5.56.95-1.39,2.31-4.17,2.65-6.4,1.96-5.59-1.73-11.06.06-16.52.31-5.58.26-8.7,7.45-5.36,12.76,4.9,7.79,4.38,15.01.42,22.75-1.51,2.95.74,5.23,2.98,6.42,8.76,4.68,17.72,3.69,24.95-3.94"/>
  <path class="cls-1" d="m2928.97,349.92c-.38-4.83-4.33-8.09-5.48-12.59,2.62-2.35,5.66-4.12,8.11-6.89,3.53-4,10.61-4.32,15.79-1.02,2.77,1.77,5.37,2.69,8.57,2.42,5.38-.45,8.21,3.27,11.09,6.87-.35,2.66-1.38,5.11-.59,7.69"/>
  <path class="cls-1" d="m393.43,356.45c1.15,7.04.56,14.13-.15,21.1-.69,6.78.74,13.42-.01,20.13-1.86,1.12-3.94,2.19-5.82,3.54-5.27,3.8-11.13,4.12-16.5.46-7.93-5.41-6.84-4.26-12.52.51-2.54,2.14-12.79,2.21-15.96-.04-2.01-1.42-3.7-3.3-5.53-4.98"/>
  <path class="cls-1" d="m1161.29,523.34c0-13.57.05-27.15-.05-40.72-.02-2.14.04-4.77,1.21-5.86,1.92-1.8,4.75-3.17,7.36-3.54,4.19-.59,9.41,4.69,8.83,9.38-1,8.08.96,16.1-.29,24.16-.85,5.47,1.29,11.05-.07,16.58"/>
  <path class="cls-1" d="m2622.03,478.6c1.59-1.92,1.51-4.23,1.51-6.53-.02-12.23-.02-24.46,0-36.7,0-1.68-.31-3.42.49-5.03"/>
  <path class="cls-1" d="m2870.48,304.17c5.38-6.49,13.26-9.7,19.58-14.98,2.93-2.44,6.31-4.3,8.42-7.64"/>
  <path class="cls-1" d="m766.36,476.09c2.17-2.33,4.82-3.41,8-3.01,3.07.38,5.18-1.56,7.5-3.02"/>
  <path class="cls-1" d="m421.92,398.17c1.33.84,2.68,1.66,4,2.52,2.91,1.9,5.87,3.7,3.58,8.08-.55,1.05-.08,2.64-.08,3.98,0,24.63,0,49.26,0,73.9,0,6.99-1.52,8.57-8.5,8.52-4-.03-8-.47-12-.45-21,.11-41.99.38-62.99.44-10,.03-20-.4-29.99-.43-6-.02-12,.42-18,.43-5.21.02-7-1.9-7-7,0-27.48,0-54.96,0-82.44"/>
  <path class="cls-1" d="m109.98,507.26c.17-3.18.38-6.37.49-9.55.48-13.55,15.18-23.49,25.99-22.05,2.89.39,5.78,1.35,8.47,2.52,2.3,1,4.41.82,5.44-1.13,3-5.68,8.1-5.01,13.09-4.98"/>
  <path class="cls-1" d="m592.89,414.76c-4.27.91-6.5-1.27-8.03-5.01-3.47-8.49-8.95-14.83-18.46-16.61-4.76-.89-9.4-.82-14.02.96-2.31.89-4.07.77-6.14-1.83-5.2-6.56-12.44-10.65-20.38-13.07-2.78-.85-5.84-.73-9,.24-8.17,2.52-15.61,5.62-20.03,13.67-1.37,2.5-3.72,3.05-6.95,2.77-4.48-.39-8.73-1.97-13.5-1.46-6.53.7-10.8,4.22-14.35,8.87-1.85,2.43-3.51,4.83-6.12,6.44"/>
  <path class="cls-1" d="m3011.96,346.15c-.17.08-.32.2-.5.25-4.54,1.07-8.9.55-12.42-2.59-1.66-1.48.57-9.76,2.93-12.49,2.5-2.89,8.47-4.11,12.49-2.5.55.22,1.01.65,1.51.99"/>
  <path class="cls-1" d="m1051.81,492.18c6.14,2.14,12.06,2.1,18.05-.91,2.59-1.3,5.85-1.43,8.41.45,3.83,2.81,7.86,1.89,12.04,1.53,4.4-.37,4.94-3.29,4.96-6.61.03-5.76-1.41-10.77-7.47-13.07"/>
  <path class="cls-1" d="m2912.98,435.88c2.33,1.17,4.61,2.49,7.01,3.48,2.78,1.15,4.14,3.04,4.53,6.06,1.35,10.45.88,11.06-9.54,11.06-2.17,0-4.38-.28-6.49.06-4.22.67-6.35-1.32-7.52-5.08-1.31-4.22-.13-8.64,3.03-10.54.76-.46,1.68-.65,2.49-1.03,6.51-3.09,6.92-3.97,6.03-11.56-.21-1.82-.03-3.68-.03-5.53"/>
  <path class="cls-1" d="m250.46,397.67c-1.33,1.01-2.73,1.94-3.99,3.03-3.94,3.43-13.05,4.5-16.93,1.39-2.24-1.79-4.71-2.97-7.08-4.43"/>
  <path class="cls-1" d="m2264.34,491.67c.82-10.59,11.1-22.79,21.26-24.55,6.84-1.18,12.9,1.64,17.89,6.06,2.89,2.56,6.03,3.02,9.07,2.28,8.92-2.19,14.73,1.87,19.54,8.66,1.1,1.56,2.32,3.02,3.49,4.53"/>
  <path class="cls-1" d="m1868.16,492.18c5.91,4.87,12.96,2.41,19.51,2.84,1.32.09,3-.29,4.49-.29,31.33-.05,62.66-.04,93.98-.01,1.83,0,3.66.35,5.5.47,1.39.09,2.82.12,2.5-2"/>
  <path class="cls-1" d="m2033.13,375.8c2.26-.17,3.53-1.6,5.1-3.17,3.8-3.81,7.06-8.54,12.9-9.65"/>
  <path class="cls-1" d="m2526.54,337.1c3.03-1.02,3.73,1.78,4.95,3.31,4.6,5.81,3.79,6.29,11.09,1.53.61-.4,1.01-.84,1.46-1.32"/>
  <path class="cls-1" d="m1803.18,337.85c-4.28-1.53-8.64-.59-13-.59-12.83,0-25.67.6-38.49-.42"/>
  <path class="cls-1" d="m982.32,492.18c1.5.08,1.31-2.38,3.32-1.65,6.38,4.36,13.3,4.14,20.73,1.28,3.02-1.16,6.61-1.1,9.95-1.09,11.33.03,22.66.28,33.99.45"/>
  <path class="cls-1" d="m3221.42,525.35c-15.33.17-30.66.33-45.99.51-3.74.04-7.5-.04-10.96-1.59-.91-.41-1.98-.69-2.49-.36-6.05,3.94-12.79.39-19.05,1.89-.91.22-2.3.07-2.93-.51-2.16-1.99-4.33-1.26-6.55-.43-4.91,1.82-10.08.72-15,.72-7.83-.01-15.69,1.08-23.49.22-7.18-.79-14.53.88-21.45-.69-6.02-1.37-11.38.84-17.05.76-13.16-.18-26.33-.41-39.49-.49-14-.08-28,.29-41.99-.15-6.82-.21-13.92,2.68-20.52-1.35-.37-.22-1.13-.24-1.46,0-5,3.57-10.82,1.75-16.02,1.71-15.67-.11-31.32-.4-47,.21-7.18.28-14.36.06-21.52-1.3-2.83-.54-5.89.92-8.97.91-27.83-.09-55.66.14-83.48-.19-6.81-.08-13.71,1.96-20.61-1.12-2.27-1.01-5.77,1.15-8.87,1.4-5.37.44-10.67.06-16.01-.07-5.82-.15-11.66.28-17.5.43-4.53.12-9.05-.13-13.49-1.04-3.17-.65-5.88,1.24-9.01,1.14-8.82-.27-17.82.95-26.45-.4-8.22-1.29-16.02.98-24.05.4-8.13-.59-16.32-.49-24.49-.58-8-.08-16-.02-24-.02h-72.99c-8,0-16-.06-24,.01-11.5.11-23,.41-34.49.45-6.5.02-13.15.51-19.45-.69-6.68-1.27-13.04.22-19.54.22-6.5,0-13-.06-19.5.02-6.5.08-13,.37-19.5.44-1.48.02-2.95.08-4.53-.35-3.94-1.07-7.61-1.18-12.09-.12-6.36,1.5-13.73,1.85-20.36-1.03-1.35-.58-3.13-1-3.93-.37-3.44,2.71-7.33,1.87-11.08,1.88-21.33.06-42.66.04-63.99,0-2,0-4.29.26-5.95-.59-5.14-2.61-9.99.88-15.07.25-5.09-.64-10.31-.13-15.48-.14-2.38,0-4.81.3-6.99-1.01-.79-.47-1.53-.99-2.5-.5-5.96,3.03-12.3,1.34-18.5,1.53-2.34.07-4.67.46-7,.46-14.66.04-29.33.03-43.99.02-4.27,0-8.57.38-12.53-1.94-.75-.44-2.21-.45-2.92,0-3.93,2.54-8.28,1.98-12.54,1.92-11-.16-22,.43-33-.41-3.47-.27-6.99.41-10.49.41-106.81.03-213.63.12-320.44-.1-13.67-.03-27.33.34-40.99.02-4.67-.11-9.58.58-14.02-1.88-.51-.28-1.34-.15-1.97-.02-11.25,2.34-22.61,2.31-34,1.49-5.84-.42-11.72,1.06-17.58-1.31-2.07-.84-4.67,1.86-7.42,1.85-12-.08-24.04.58-35.97-.32-5.29-.4-10.32-.14-15.53,0-12.47.32-25,.87-37.49-.17-2.23-.19-4.06-1.18-6-2.05"/>
  <path class="cls-1" d="m512.41,523.34c-1.17,3.93-4.68,2.26-6.43,1.77-3.23-.89-6.14-1.13-9.03.3-1.4.69-2.75.53-4.02.38-10.01-1.19-20,.33-30,.1-3.43-.08-6.81-.22-9.98-1.6-1.04-.45-2.01-1-3.01-.43-6.72,3.88-14.1,1.69-21.01,1.75-47.65.44-95.31.29-142.97.16-5.67-.01-11.34-.78-17,.08-4.17.63-7.82-2.19-11.5-2.19s-7.34,2.87-11.5,2.17c-1-.17-2.15.56-3-.49"/>
  <path class="cls-1" d="m164.97,522.84c.17-13.91.95-27.84.31-41.71-.55-11.94.64-23.79.27-35.7-.37-11.72.02-23.46-.14-35.18-.05-3.27.48-6.24,2.06-9.05"/>
  <path class="cls-1" d="m275.95,329.31c-3.7,5.91-8.46,6.68-14.53,3.59-4.46-2.27-9.25-3.92-14.46-3.09"/>
  <path class="cls-1" d="m1840.17,386.61c1.34-1.49,3.49-1.33,4.91-2.17,4.27-2.52,9.14-4.52,11.59-9.39"/>
  <path class="cls-1" d="m336.44,356.45c-1.15,9.44,0,18.78.92,28.16.34,3.47-.2,7.03-.44,10.55-.11,1.59-6.91,7.24-9.47,8.04-5.99,1.89-15.23-.59-19.02-5-.87-1.01-.42-2.04-.44-3.04-.07-4.69-.03-9.38-.03-14.07"/>
  <path class="cls-1" d="m537.9,480.61c-3.63,2.67-7.74,1.09-11.49.85-7.35-.46-14.67-.15-22.01-.35"/>
  <path class="cls-1" d="m636.39,372.03c0-9.72.07-19.44-.03-29.16-.06-6.25-2.69-9.16-8.97-8.94-6.84.24-13.67-.66-20.51.3-2.41.34-4.96.14-7.5-.3-4.15-.71-8.35.13-12.48.89"/>
  <path class="cls-1" d="m2920.47,340.87c-1,1.17-1.89,2.48-3.02,3.49-1.96,1.75-4.07,3.47-6.97,2.03-2.89-1.44-5.23-3.19-5.05-7.03.2-4.16-.95-8.61,4.02-11.11,2.29-1.15,4.13-1.66,6.05.54,1.55,1.78,3.31,3.37,4.98,5.05"/>
  <path class="cls-1" d="m2956.97,445.43c8.5-6.87,17.1-13.62,25.42-20.7,2.08-1.77,4.07-2.47,6.57-2.43"/>
  <path class="cls-1" d="m2475.05,466.54c-.27-2.65.8-4.59,2.99-6.04,4.28-2.83,9.1-4.82,11.69-9.95.96-1.9,4.54-1.39,6.39-3.55,2.53-2.95,5.59-5.43,8.42-8.11"/>
  <path class="cls-1" d="m258.95,404.21c-.67-.67-1.22-1.57-2.02-1.97-6.47-3.28-6.15-9.18-6-15.12.14-5.87-.21-11.74.46-17.6.13-1.11,1.04-3.52-1.93-2.76"/>
  <path class="cls-1" d="m539.4,523.85c.8-5.19,1.33-10.32-3.51-14.06-1.09-.84-1.1-1.9-.98-3.03.91-8.2.33-16.42.49-24.63"/>
  <path class="cls-1" d="m1621.21,434.87c-1.47,1.64-3.52,2-5.55,2.63-.84-.9-1.63-1.78-2.46-2.63-2-2.05-1.11-3.85.51-5.53,4.48-4.64,9.92-7.95,15.49-11.07"/>
  <path class="cls-1" d="m2866.48,306.18c-3.05-4.93-4.36-10.25-4.05-16.09.24-4.51-.15-9.06.12-13.57.19-3.27-.78-5.98-2.57-8.55"/>
  <path class="cls-1" d="m650.38,465.03c-.13,3.54.87,7.18-1.2,10.46-6.46.62-13.19-.82-19.8.85"/>
  <path class="cls-1" d="m1287.27,469.05c4.2-.25,7.37-2.26,10.03-5.5,2.95-3.59,5.47-7.92,10.96-8.07"/>
  <path class="cls-1" d="m1333.76,491.67v-136.73"/>
  <path class="cls-1" d="m379.93,464.53c-4.82-4.03-10.29-5.66-16.5-4.52-2.51.46-4.89-.54-7.52-.17-6.28.88-11.45,4.14-16.97,6.7"/>
  <path class="cls-1" d="m1355.26,396.92c5.83-4.36,11.66-8.71,17.5-13.07"/>
  <path class="cls-1" d="m3002.96,453.47c1.43-4.23,4.51-7.12,8.02-9.51,4.65-3.16,8.41-7.48,13.43-10.16.93-.5,1.37-1.94,2.04-2.94"/>
  <path class="cls-1" d="m1836.67,466.04c-11.16-.17-22.33-.37-33.49-.49-6.83-.07-13.68-.32-20.49.11-3.7.23-6.76-3.03-10.51-1.38"/>
  <path class="cls-1" d="m2407.07,346.4c-.94-2.12-.81-4.45-.41-6.52,1.19-6.23,4.39-8.56,10.91-8.56,2.33,0,4.84.55,6.95-.14,2.68-.87,2.75-5.28.54-9.41"/>
  <path class="cls-1" d="m1,525.86c12.83,0,25.66-.01,38.49,0,3.42,0,6.86.24,9.99-1.53,1.3-.73,2.89-.92,3.97-.41,6.04,2.87,12.26,1.87,18.54,1.5,5.65-.33,11.35-.38,16.98.1,2.04.17,3.69-.36,5.52-.6,1.02-.14,1.51-1.18,3.03-.68,10.8,3.54,21.98,1.42,32.96,1.38,7.17-.03,14.33.56,21.5.25,1.66-.07,3.42.34,4.98-.08,4.88-1.3,9.68-2.85,14.51.07,9.19-2.72,18.94,2.7,28.02-1.96.79-.41,2.03-.26,2.96-.02,9.74,2.53,19.6,2.26,29.51,1.51,2.82-.21,5.67-.14,8.49,0,1.65.08,2.3-.41,2-2.05"/>
  <path class="cls-1" d="m2571.29,347.9c.25-2.35.29-4.74.79-7.03,1.4-6.43-2.17-10.42-6.54-14.08"/>
  <path class="cls-1" d="m2763,484.13c1.14-13.9.47-27.82.31-41.72-.05-3.93-1.31-8.61-6.81-9.3"/>
  <path class="cls-1" d="m534.4,509.27c-9.17,3.7-18.33,2.29-27.5,0"/>
  <path class="cls-1" d="m2964.47,433.36c-2.5-3.25-2.73-5.87,1.47-8.1,4-2.13,6.03-6.88,10.53-8.48"/>
  <path class="cls-1" d="m2497.55,435.62c-1.3-.64-2.39-1.4-4.04-.32-2.77,1.81-5.84,2.45-9.58.37.91-3.72,2.48-6.68,5.51-9.48,4.72-4.36,10.47-7.44,14.61-12.45"/>
  <path class="cls-1" d="m2360.07,345.64c-7.17-.02-14.32-.6-21.51.16-3.61.38-7.32-.24-10.99-.41"/>
  <path class="cls-1" d="m2761.5,408.23c3.18-.08,1.97-2.54,1.94-4.02-.2-12.06.66-24.14-.42-36.2-.04-.48.31-1,.47-1.51"/>
  <path class="cls-1" d="m2525.54,338.35c-.83.84-1.72,1.63-2.49,2.52-4.63,5.32-8.21,5.47-13.01.5-.49-.51-1-1.01-1.5-1.51"/>
  <path class="cls-1" d="m2134.62,352.43c-13,.17-25.99.43-38.99.48-20,.08-39.99.01-59.99.03-3.86,0-7.72-.29-11.51.95-3.06,1-5.83-1.14-8.99-1.09-16.83.28-33.66.13-50.49.13-28.33,0-56.66,0-84.98,0-3.53,0-7.05-.24-10.51.96-3.58,1.24-6.86-1.11-10.49-1.09-34.49.2-68.99.12-103.48.12h-3"/>
  <path class="cls-1" d="m689.38,329.31c7.78-6.57,12.94-6.42,20.5-.5"/>
  <path class="cls-1" d="m2662.02,326.79c2.74-3.49,2.22-7.64,1.88-11.55-.24-2.83-1.45-5.1-5.38-5.21-3.66-.11-7.34-.3-11-.3-23-.04-45.99-.02-68.99-.02h-240.96c-10.93,0-12.57,1.21-11.26,12.04.63,5.2-1.19,10.18-.13,15.09,1.44,6.63-1.44,13.04-.21,19.65.98,5.26,2.75,7.77,8.09,7.39,4.71-.33,8.93,2.7,14.14.45,3.8-1.64,8.86-.34,13.36-.31,2.7.01,5.44-.32,8.01.98.6.3,1.39.63,1.98.48,20.49-5.29,41.41.13,62-2.47,6.57,4.13,13.35.64,19.99.38,7.71-.3,15.25,1.65,23.02.84,3.58-.37,7.31.49,11-.63,1.68-.51,3.67-.3,5.47-.05,12.49,1.75,25.02-.4,37.49.55,5.24.4,10.38.75,15.5-.59"/>
  <path class="cls-1" d="m1445.24,494.69c-6.83.19-13.68-.33-20.5.48-4.04.48-7.98-2.01-11.98-.92-5.19,1.42-10.36-.17-15.51.44-1.17.14-2.07-.02-2-1.51"/>
  <path class="cls-1" d="m1042.81,111.64c5.05-1.49,9.35.51,13.49,3.03,2.88,1.75,4.76,1.45,7.14-1.42,3.38-4.08,7.5-7.52,12.85-9.22,8-2.54,19.64,1.82,24.06,9.08,2.12,3.48,3.55,6.99,2.93,11.09-.56,3.68.76,6.66,4.05,7.95,5.31,2.09,8.4,6.34,11.4,10.69,1.25,1.82,2.11,2.41,4.58,2.11,11.16-1.38,17.58,6.28,20.29,14.5,1.31,3.96-.52,8.7-2.99,11.86-3.44,4.41-8.13,7.72-14.32,7.7-36.16-.11-72.32-.18-108.48-.27"/>
  <path class="cls-1" d="m1282.77,493.68c.16-7.7,4.91-12.15,11.01-15.56,2.7-1.51,4.78-3.42,5.35-6.9-.99-1.53-2.18-3.36-3.36-5.19"/>
  <path class="cls-1" d="m2551.04,413.25c-5.31,3.07-8.93,8.22-14.02,11.52-1.39.9-2.38,2.74-4.48,2.3"/>
  <path class="cls-1" d="m2588.28,447.94c-.26-4.11,3.74-4.15,5.81-5.97,3.26-2.87,6.45-5.93,10.44-7.86"/>
  <path class="cls-1" d="m332.44,140.29c-7.16.44-14.25,2.43-21.5,1.01"/>
  <path class="cls-1" d="m501.41,523.34c.01-5.17-.75-10.26,4.33-14.29,2.15-1.7.82-5.87.56-8.83-.44-4.93-1.38-9.79-2.54-14.67-1.44-6.08-.9-12.85,2.26-19.08,4.04-2.19,8.63-3.89,13.92-1.54,2.39,1.06,7.98-1.23,8.96-2.92"/>
  <path class="cls-1" d="m3006.46,457.49c4.94-.69,8.1-5.26,13-6.02.49-.08,1-.01,1.5-.01"/>
  <path class="cls-1" d="m380.43,380.08c-13.83.63-27.66-.5-41.5.39-7.29.47-14.71-.87-21.98-.24-11.05.97-22.04-1.24-33-.08-10.83,1.14-21.76-2.17-32.5.93"/>
  <path class="cls-1" d="m1842.17,375.8c3.7-3.99,8.88-5.89,13-9.29,3.5-2.89,7.67-.96,11.49-1.52"/>
  <path class="cls-1" d="m684.88,347.9c-4.92-.52-8.62-2.69-10.53-7.53-.63-1.59-1.48-3.15-2.51-4.5-1.06-1.39-2.16-2.03-4.48-1.76-4.75.56-9.65-.36-14.47-.22-5.73.16-11.64-.48-17,2.45"/>
  <path class="cls-1" d="m452.92,379.07c-10.26,2.06-20.71.11-30.99,1.51"/>
  <path class="cls-1" d="m461.42,315.23c-11.67-.59-23.34-1.22-34.99.25"/>
  <path class="cls-1" d="m630.64,433.36c.4-1.16.13-2.84,2.25-2.52,9.33,1.37,18.66-.39,27.99.01"/>
  <path class="cls-1" d="m2003.64,465.03c-5,.34-10.06,1.32-14.98.86-8.88-.83-17.67.77-26.51.19-4.99-.33-7.27-2.41-6.97-7.59,1.06-18.43.21-36.87.42-55.3.03-2.51-.67-5.02-.94-7.54-.57-5.24,2.79-9.04,7.99-9.04,12-.01,24-.02,35.99,0,6.2,0,7.37,1.26,7.54,7.53.03,1.1-1.32,3.16,1.46,3.02"/>
  <path class="cls-1" d="m2023.14,492.18c0-28.32.04-56.64-.02-84.95-.02-10.56-.89-21.15-.27-31.66.4-6.9-1.12-13.78.29-20.62"/>
  <path class="cls-1" d="m194.97,381.08c-.33,3.18-.62,6.37-1.02,9.55-.34,2.68,1.49,6.19-1.08,7.9-3.52,2.35-6.69,5.95-11.93,4.79-2.89-.64-5.99-.14-8.99-1.06-4.9-1.5-6.4-2.92-6.43-8.11-.03-4.7,1-9.64.58-14.04-.75-7.9.25-15.84-1.13-23.66"/>
  <path class="cls-1" d="m650.38,457.49c.44-3.13-.88-4.17-4-4.09-5.66.15-11.33-.1-17-.19"/>
  <path class="cls-1" d="m2175.11,486.65c.61-7.67-3.21-13.41-8.58-18-4.33-3.71-9.91-5.04-15.37-2.98-4.16,1.57-8.25,2.02-12.55,1.88"/>
  <path class="cls-1" d="m1948.15,377.56c-3.58-2.28-2.51-4.91-.49-7.53,3.66-4.76,8.75-6.41,14.49-6.54"/>
  <path class="cls-1" d="m708.87,336.34c-6.39,1.9-12.72,1.8-19-.5"/>
  <path class="cls-1" d="m2836.74,325.28c3.03,3.94,7.82,6.58,8.65,12.52-1.76,4.22-3.76,8.68-9.9,8.62-1.64-.02-2.5-1.01-3.51-2.02-2.94-2.95-3.15-7.33-3.02-10.55.11-2.6,4.29-5.09,7.53-6.55"/>
  <path class="cls-1" d="m2956.47,306.18c3.61-5.77,4.01-11.81,3.3-18.63-.62-5.88-2.33-12.56,2.21-18.05,1.33-1.61-.01-3.1-.62-3.95-2.03-2.82-3.04-6.04-4.39-9.13"/>
  <path class="cls-1" d="m1071.81,510.27c4.78-1.63,9.69-1.5,14.48-.43,5.37,1.2,8.84-1.45,9.07-7.1.15-3.59-.65-6.85-2.06-10.06"/>
  <path class="cls-1" d="m2883.48,450.96c-.84-1.39-1.43-2.83-1.53-4.52-.49-8.72-1.28-17.43.03-26.14"/>
  <path class="cls-1" d="m385.93,459c-.33-.84-.77-1.65-.98-2.52-1-4.05-2.93-6.8-7.49-7.66-3.58-.68-6.79-2.73-9.02-5.9"/>
  <path class="cls-1" d="m1986.39,57.35c5.53-9.52,13.98-13.93,24.75-14.03,3.14-.03,5.58-.62,8.09-2.96,7.3-6.85,15.78-5.39,20.29,3.48,1.44,2.83,1.66,6.78-.5,9.39-2.96,3.58-2.42,6.7-.37,10.14.23.39.96.7.94,1.01-.48,6.56,2.51,8.54,8.92,10.08,4.53,1.09,10.13,4.76,11.68,11.02.44,1.77,1.26,3.7,2.5,4.98,3.67,3.77,5.72,3.61,8.87-.98,2.79-4.06,5.46-8.02,9.48-11.12,4.42-3.41,9.24-4.74,14.57-4.92,4.16-.13,8.17.58,11.71-3.34,1.93-2.14,6.25-1.11,9.25-.53,3.72.73,11.43,8.62,11.03,13.9-.25,3.27,1.07,5.86,4.03,6.97,5.18,1.94,8.62,5.95,11.3,10.23,2.59,4.13,6.02,5.12,10.17,5.41,6,.42,12.07,5.99,12.5,11.57.57,7.44-3.8,13.64-10.49,15.11-3.15.69-6.28,1.01-9.5,1.01-70.82-.03-141.64-.01-212.46-.05-5.5,0-11.07-.94-16.48-.34-9.55,1.06-19.14-.8-28.47.19-9.91,1.06-19.69-.26-29.55.45-10.93.79-21.98,0-32.98-.38-2.31-.08-4.42-.09-6.5.85"/>
  <path class="cls-1" d="m1285.77,388.12c5.23-.29,6.58-5.47,9.96-8.1,6.22-4.84,12.21-10,18.29-15.03"/>
  <path class="cls-1" d="m2431.56,522.84c-.17-1.51-.55-3.03-.46-4.52.26-4.05.34-7.96-.34-12.1-1.33-8.1,4.81-12.29,12.81-9.57,1.55.53,3.32.53,4.98.53,48.66.03,97.32.15,145.97-.08,10.16-.05,20.33.75,30.5-.3,3.94-.41,7.99.3,11.99.38,1.33.03,2.99.14,3.94-.55,4.27-3.1,7.86-.3,11.54,1.12,3.95,1.54,3.1,5.51,3.4,8.52.57,5.66.45,11.38.61,17.08"/>
  <path class="cls-1" d="m579.9,374.3c4.43-.45,5.19-2.98,5.76-7.25.89-6.76-.41-13.42.22-20.19.43-4.6.4-9.67.51-14.53"/>
  <path class="cls-1" d="m1070.31,510.78c-4.57-1.37-9.22-1.62-14-1.58-18,.17-35.99.02-53.99.11-3.53.02-6.97-.08-10.6,1.18-2.85.99-6.4-1.61-9.9-1.26-2.68.27-5.39-.15-8.01,1.01-3.67,1.63-5.86-.63-7.45-3.5-1.56-2.81-1.99-6.46-.81-8.92,1.82-3.77,1.29-6.84-.24-10.16-1.52-3.28.68-5.74,2.1-7.99,5.94-9.43,21.69-9.47,26.4,1.45-1.05,2.53-3.2,4.14-5,6.03"/>
  <path class="cls-1" d="m1449.74,102.09c-17.73-.77-32.32-7.58-42.47-22.63-11.09-16.45-12.71-33.32-3.14-51.33,6.87-12.93,16.95-21.76,30.67-25.36,14.46-3.8,28.39-1.44,41.52,6.69,12.67,7.85,19.6,19.65,21.55,33.36,2.49,17.54-1.28,34.07-16.62,45.71-2.26,1.72-4.27,3.76-6.53,5.49-7.22,5.54-16.13,5.95-24.48,8.06"/>
  <path class="cls-1" d="m708.37,523.34c1.01-11.06.19-22.12.04-33.18-.05-3.55-.4-6.8-3.54-9.05-3.61-2.58-4.9-6.33-5.54-10.55-.75-4.9.74-7.5,5.54-7.47,13,.09,25.99-.51,39,.33,5.96.38,11.99-.22,17.99-.41,5.17-.17,10.3.41,15.5.26,6.2-.17,11.78,10.74,9.56,16.86-.28.77-.43,1.85-1.08,1.92-4.67.48-8.82,4.99-14.02,1.63-2.3-1.49-5.16-2.11-7.41-3.65-2.34-1.61-5.7-1.71-6.9-.73-7.94,6.48-17.08,3.09-25.66,3.75-7.81.6-15.72-.74-23.49,1.08"/>
  <path class="cls-1" d="m770.86,428.84c1.21,1.27,3.19,2.71,1.44,4.47-5.94,5.95-11.2,12.89-19.94,15.14"/>
  <path class="cls-1" d="m1079.81,456.99c-4.88,3.43-9.99,5.54-16.01,3.06-.71-.29-1.7-.22-2.48-.01-4.64,1.23-9.48.18-13.96.78-7.07.95-14.14-1.98-21.05.65-1.01.38-2-.15-3.04-.88-1.97-1.39-3.95-.98-6.51-.38-4.58,1.08-9.61.51-14.42.2-1.98-.13-4.63,1.62-6.01-1.41"/>
  <path class="cls-1" d="m250.46,380.58c-9.33-.72-18.66-.25-28-.24-6.64,0-13.27-1.06-20.01-.43-2.63.25-5.22,2.11-7.98.67"/>
  <path class="cls-1" d="m1611.71,433.86c-3.91,1.18-7.89,1.9-12,1.51"/>
  <path class="cls-1" d="m776.36,523.34c-.17-12.57-.33-25.13-.5-37.7"/>
  <path class="cls-1" d="m943.33,124.71c-16.16,0-32.33-.01-48.49,0-5.18,0-10.4-.34-15.5,1"/>
  <path class="cls-1" d="m892.84,472.07c-.17-2.01-.48-4.02-.48-6.03-.03-41.39-.01-82.78-.04-124.16,0-3.35-.09-6.7-.36-10.06-.39-4.93,1-9.42,7.88-9.01,5.68.34,11.52-1.27,17.03,1.42.27.13.71.55,1.51.15,5.24-2.63,10.93-1.36,16.46-1.56,3.01-.11,6.41-.62,7.48,3.49.92,3.55-1.5,8.28-5.51,9.47-9.04,2.67-18.25,1.94-18.97-10.47"/>
  <path class="cls-1" d="m358.44,459c-.55-5.66,1.9-9.96,5.99-13.58,5.71-5.07,6.46-8.55,3.51-15.57"/>
  <path class="cls-1" d="m382.43,449.95c4.82-6.27,5.33-12.72,1.5-19.1-3.78-6.3-7.8-6.56-14.1-3.21-5.88,3.12-10.4,8.71-17.39,9.75"/>
  <path class="cls-1" d="m593.89,499.72c2.39.15,2.17-1.61,1.97-3.01-1.6-11.4.43-22.78.11-34.19-.34-12.05-.07-24.13-.08-36.19,0-3.48.46-7.04-1.97-10.07-.7-.88-.7-2.06,0-2.98,2.43-3.27,2.11-6.84,1.53-10.58-.59-3.78.08-7.4,2.6-10.39-5.3-5.74-.75-11.89-1.84-18.5,9.2.95,17.69.13,26.19-.03,16.85-.31,33.67.74,50.49.22,8.83-.27,17.69.73,26.52-.83,2.86-.5,5.88,1.01,8.98.94,17.24-.42,34.52-.62,51.74-.65,12.03-.02,24.25-.59,36.21.88,5.39.66,10.14-.13,14.99-1.45,1.44-.39,2.54.05,3.51.28,2.85.69,5.64,1.06,8.53.63"/>
  <path class="cls-1" d="m812.35,372.03c-.42-6.19-1.74-12.35-.54-18.61.26-1.35-.06-2.82,2.04-2.51"/>
  <path class="cls-1" d="m2760.5,433.36c5.12-7.95,2.45-16.68,2.5-25.13"/>
  <path class="cls-1" d="m648.88,452.97c2.12-2.69,2-5.88,2-9.05"/>
  <path class="cls-1" d="m3049.45,307.69c0-7.54-.05-15.08.02-22.62.04-3.69.56-7.38.41-11.06-.15-3.53-1.91-5.77-5.93-5.57-3.49.18-7,.04-10.5.04-22.5,0-44.99,0-67.49-.02-1,0-2-.31-3-.48"/>
  <path class="cls-1" d="m279.45,379.57c-.18-7.71.39-15.43-.5-23.12"/>
  <path class="cls-1" d="m420.92,381.08c-9.14-1.48-18.3-2.11-27.5-.5"/>
  <path class="cls-1" d="m2370.57,522.84c0-43.23-.02-86.46.02-129.69,0-9.05-.39-18.11.48-27.15"/>
  <path class="cls-1" d="m788.36,346.9h21.5"/>
  <path class="cls-1" d="m2964.47,329.81c2.2-2.82,2.65-6.99,6.5-8.55"/>
  <path class="cls-1" d="m1445.24,352.93h-69.99c-11.66,0-23.36-.54-34.98.15-11.87.7-23.66-.67-35.51-.24-11.65.42-23.33.09-34.99.09"/>
  <path class="cls-1" d="m1269.27,508.76c-2.58-3.66-3.46-7.39-1.13-11.63.34-.61,1.43-1.62.67-2.97-3.06-5.43-1.6-11.3-1.58-17.07.09-36.53.03-73.06.07-109.59,0-4.6-2.16-9.55,1.93-13.62.33-.33.2-1.34.02-1.96-4.31-14.59-.95-29.51-1.92-44.25-.21-3.18,2.19-4.09,4.94-4,3.5.11,7,.47,10.5.47,49.66.03,99.32.03,148.97,0,4.5,0,9-.31,13.5-.48"/>
  <path class="cls-1" d="m2441.56,343.38c-5.3-5.45-1.69-11.67-1.25-17.59h3.74"/>
  <path class="cls-1" d="m96.98,523.34c-1.97-10.51,6.57-12.16,13.17-15.28,1.27.72,2.8,1.59,4.33,2.46"/>
  <path class="cls-1" d="m518.41,431.85c-.66-2.57-2.77-4.66-2.5-7.54"/>
  <path class="cls-1" d="m1498.23,422.3h7"/>
  <path class="cls-1" d="m2878.98,496.2c-5,.34-10,.94-15,.96-23.66.1-47.34.59-70.98-.28-7.24-.26-14.34.47-21.51.3-1.5-.03-3.28.14-4.45-.57-3.44-2.09-6.25-.92-9.05,1.1-2.83,2.04-2.9,4.68-2.67,8.05.4,5.82.67,11.74-.33,17.58"/>
  <path class="cls-1" d="m2570.04,477.1c1.13-4.19.02-8.38.01-12.57-.03-21.78-.07-43.57.03-65.35.02-5.03.94-10.05-.04-15.08"/>
  <path class="cls-1" d="m522.91,430.85c.96-1.37,1.1-2.92,1-4.52-.13-1.88.44-3.23,2.5-3.52"/>
  <path class="cls-1" d="m209.46,402.7c-1.14-2.1-.18-4.37-.5-6.53"/>
  <path class="cls-1" d="m2111.12,387.62c4.55-1.95,7.54-5.31,8.94-9.95,1.57-.3,3.07-.58,4.56-.86"/>
  <path class="cls-1" d="m1946.15,405.71h-6.5"/>
  <path class="cls-1" d="m2648.02,433.36c-1.52-3.18-2.08-6.49-2.05-10.05.12-16.59.04-33.18.06-49.77,0-8.03-1.35-9.44-9.5-9.5-22.83-.15-45.67.28-68.48-.24-7.33-.17-14.69.8-22-.31"/>
  <path class="cls-1" d="m2135.62,320.76c-12.66-.17-25.33-.43-37.99-.47-8.16-.02-16.33.3-24.5.47"/>
  <path class="cls-1" d="m1924.15,385.61v-6.53"/>
  <path class="cls-1" d="m53.49,465.03c13.97-.76,24.17-7.67,32.06-19.06,10.15-14.66,13.67-30.98,11.77-48.29-1.88-17.2-8.43-32.65-22.41-43.65-7.61-5.98-16.86-7.73-26.41-6.59-11.66,1.39-19.55,8.3-26.72,17.37-5.99,7.57-10.31,15.84-11.49,24.85-2.41,18.33-2.06,36.67,8.2,53.26,5.24,8.47,12.35,15.06,21.11,19.4,3.75,1.86,8.57,1.54,12.9,2.21"/>
  <path class="cls-1" d="m1070.81,523.34c.17-6.2.33-12.4.5-18.6"/>
  <path class="cls-1" d="m351.44,473.58c-.46-3.18.99-6.03,1.5-9.05"/>
  <path class="cls-1" d="m1694.19,430.85c-4.69-1.47-8.46.8-12.25,3.02"/>
  <path class="cls-1" d="m256.95,482.12c-3.04.02-6.1.24-9-1.01"/>
  <path class="cls-1" d="m3136.93,523.34c1.86-9.57-5.1-13.56-11.6-16.89-5.26-2.7-5.8-6.42-5.41-11.26.9-11.08-4.94-18.55-13.57-24-3.48-2.19-7.43-3.93-11.9-4.3-3.58-.3-6.42.15-9.6,2.01-3.36,1.96-7.08,3.05-10.53-1.26-3.53-4.41-8.9-5.22-14.38-4.62"/>
  <path class="cls-1" d="m1053.81,439.39c.32-2.17-.64-4.43.5-6.53"/>
  <path class="cls-1" d="m3142.93,515.3h-6"/>
  <path class="cls-1" d="m1659.2,491.67c-.03-2.77.4-5.63-1.5-8.04"/>
  <path class="cls-1" d="m2807.49,371.03v-6.03"/>
  <path class="cls-1" d="m1775.68,463.02c-1.32-3.69.06-7.37.04-11.06-.08-19.1-.05-38.2-.03-57.31,0-6.79,1.24-8.03,7.99-8.04,16.83-.01,33.66.03,50.49-.04,2.52-.01,5.12-.03,5.4,3.06.28,3.12,3.55,6.92-1.4,9.29"/>
  <path class="cls-1" d="m1659.2,434.87c-2.5-.34-5-.67-7.5-1.01"/>
  <path class="cls-1" d="m1899.16,113.65c-5.53-2.07-10.97-2.95-17.04-1.71-4.96,1.01-10.29.21-15.46.21"/>
  <path class="cls-1" d="m2332.08,370.02c.24-1.84-.52-3.76.5-5.53"/>
  <path class="cls-1" d="m1712.19,362.48c1.45-7.72-.49-10.18-8.5-10.03-57.82,1.08-115.65.33-173.47.35-11.99,0-24-.29-35.99-.35-6.96-.03-9.38,2.66-8.38,9.51.19,1.3.04,2.34-.08,3.54-.37,3.78.64,6.28,4.89,7.72,4.13,1.4,7.76,1.65,12.09,1.02,6.55-.96,13.3-.59,19.97-.69,5.16-.08,10.4-.54,15.48.1,8.42,1.05,16.67-.82,25.01-.66,8.16.16,16.33.02,24.49.05,1.67,0,3.39-.31,5,.49,3.59,1.78,7.05,1.27,11.03.76,12.73-1.63,25.66-2.08,38.44-.59,5.67.66,11-.06,16.53-.37,9.93-.55,20.03-1.18,29.96.32,4.51.68,9.23,1.03,13.51.98,7.83-.08,12.12-2.32,10-11.66"/>
  <path class="cls-1" d="m703.37,426.32c-.99.25-2.33-.65-2.97.52-1.99,3.62-5.7,4.5-9.21,6.18-2.11-.99-3.53-2.77-4.83-4.69"/>
  <path class="cls-1" d="m1650.2,523.34c.33-9.89.73-19.77.98-29.66.17-6.71-1.87-13.36-.5-20.11.13-.64.31-1.63-.03-1.96-4.32-4.26-1.62-8.8-.33-13.08.57-1.89.98-3.68.85-5.57-.91-13.9-.44-27.82-.44-41.72,0-8.88.36-17.76.44-26.64.03-3.01-.3-6.03-.47-9.05"/>
  <path class="cls-1" d="m2840.49,371.03c-.32-2.17.64-4.43-.5-6.53"/>
  <path class="cls-1" d="m981.57,150.85c1.01-2.39-.93-3.67-2.3-4.44-10.63-6.01-24.92,1.77-25.95,13.99-.43,5.07-2.39,7.09-7.5,6.99-6-.11-12.02.67-18-.44-2.09-.38-3.54,1.55-5.5,1.74"/>
  <path class="cls-1" d="m1579.72,431.85c-.83-1.17-1.67-2.35-2.5-3.52,2.01-4.79,6.26-7.41,9.96-10.6,1.09-.94,1.38.15,2.04.3"/>
  <path class="cls-1" d="m2774.5,307.69c-1.38-5.86.43-11.72.04-17.6-.36-5.35-.38-10.72-.54-16.08-.11-3.77.91-5.7,5.5-5.65,24.99.26,49.99,0,74.98.25,4.23.04,6.6-1.25,7.44-5.16.48-2.22,1.43-4.17,2.6-5.99,1.47-2.29,6.17-2.4,7.36.02,1.93,3.94,5.19,6.21,8.59,8.5,6.32,4.26,12.02,9.26,17.82,14.19,3.93,3.33,10.2,6.37,16.71,3.47,4.07-1.82,7.7-3.7,11.21-6.83,4.64-4.15,10.24-7.43,15.36-11.2,3.57-2.63,6.34-5.72,8.9-9.19"/>
  <path class="cls-1" d="m2289.59,405.71c.55-2.3,1.71-4.84,4-4.88,4.87-.08,4.8-3.54,5.5-6.69"/>
  <path class="cls-1" d="m2686.02,155.88c-.67-2.35-1.3-4.7-2.01-7.04-2.46-8.13,2.67-16.9,11.02-18,5.13-.67,6.35-4.63,7.35-8.18,2.45-8.69,9.08-12.04,16.67-13.9,4.72-1.16,6.68-3.81,8.06-8.15,3.23-10.17,14.11-19.66,25.41-21.1,5.17-.66,9.42-1.49,13.21-6.4,9.58-12.45,23.74-7.17,29.58,2.46,3.5,5.78,2.67,12.73-.35,18.96-1.04,2.15-2.62,4.04-3.95,6.05"/>
  <path class="cls-1" d="m2135.12,337.35c-12.33,0-24.69.53-36.99-.14-14.2-.77-28.34.73-42.5.09-5.53-.25-11.02-.31-16.5.55"/>
  <path class="cls-1" d="m210.96,440.9c-2.47,3.51-6.16,2.32-9.5,2.51"/>
  <path class="cls-1" d="m1836.42,469.56c.08-.84-.16-1.99.3-2.46,4.53-4.68,3.41-10.54,3.43-16.14.05-15.75.03-31.5,0-47.25,0-1.68.31-3.42-.49-5.03"/>
  <path class="cls-1" d="m1395.25,494.19c-1.82,2.3-4.03.47-6,.44-13.33-.18-26.67.05-40-.11-4.91-.06-9.54.69-14-1.82-.35-.2-.97-.4-1.22-.23-7.04,4.71-14.86,1.46-22.28,2.08-8.45.71-17,.42-25.48.37-5.47-.03-11.01.28-16.5-.23"/>
  <path class="cls-1" d="m200.96,522.84c0-34.69,0-69.37,0-104.06,0-4.89-1.59-9.88,1.01-14.58"/>
  <path class="cls-1" d="m297.95,325.28c-.23,4.31-2.97,7.35-6.12,9.36-2.1,1.34-5.49,1.83-7.88-.81-1.67-1.85-3.35-3.63-5.45-5.09-3.5-2.44,0-6.05-1.04-8.98"/>
  <path class="cls-1" d="m2645.52,494.19c.8-2.64.48-5.36.49-8.04.02-14.41.04-28.82-.02-43.23,0-2.5.32-4.84,1.52-7.04.36-.66.7-1.94,1-1.92,7.15.36,7.74-6.72,11.47-10.18,1.66-1.54,3.29-3.2,5.54-3.42,3.98-.39,7.99-.5,11.99-.53,3.26-.03,5.99,1.1,7.25,4.49"/>
  <path class="cls-1" d="m2501.05,348.91c.17-3.35.33-6.7.5-10.05"/>
  <path class="cls-1" d="m2951.97,306.68c2.95-.18,5.84-.03,8.5,1.5,2.33,1.34,4.86,1.55,7.5,1.54,13.66-.06,27.33-.03,40.99-.03,10.83,0,21.66-.03,32.49.01,4.67.02,9.2-.84,14.03-.25,8.81,1.08,12.17,4.14,10.32,12.78-.69,3.21-1.37,6.03.1,9.1.33.68.02,1.65.05,2.49.29,7.71-1.06,15.36-.15,23.14.68,5.78-6.08,10.25-11.31,7.94-1.46-.64-2.52-.73-4.05-.51-2.61.37-5.45.63-7.96,0-8.19-2.05-16.36.13-24.53-.18-2.44-.09-5.06,0-7.47-.36-2.59-.39-5.03-.44-7.51.15-2.68.64-5.33.13-8,.09-9.66-.16-19.31-.6-29-.21-11.81.47-23.66.25-35.49.06-7.17-.12-14.31.54-21.5.16-8.81-.46-17.69.3-26.48-.31-3.58-.25-7.13-.21-10.49.35-6.85,1.15-13.87.57-20.51.36-12-.38-24.01-.12-36.01-.46-5.16-.15-10.33.41-15.5.41-4.83,0-9.66-.35-14.5-.45-6.54-.14-13.12-.45-19.49,1.51-4.49,1.38-10.29-2.33-10.44-7.06-.09-2.85-.72-5.82.89-8.57.37-.63.89-1.38.13-2.53-2.33-3.5-2.19-7.76-1.41-11.48,1.31-6.28.66-12.42.32-18.63-.25-4.71,2.41-7.78,7.51-7.65,7.49.2,14.97-.46,22.5,0,7.47.46,14.99.1,22.49.1h22.5c7.5,0,15.02-.35,22.49.13,4.57.29,8.72.2,12.52-2.63,1.25-.93,2.62-.78,3.99-.03,7.15,3.91,14.93,2.23,22.49,2.54,5.17.21,10.38.36,15.49.27,12.33-.21,24.67-.05,36.99-.41,2.35-.07,4.67-1.57,7.08-2.43-1.02-4.39-4.49-6.93-7.64-9.44-4.59-3.66-9.53-6.89-14.46-10.09-2.69-1.74-5.04-3.66-6.47-6.58"/>
  <path class="cls-1" d="m2786,102.34c2.76-1.18,4.97-.59,7.59,1.12,3.55,2.32,7.75,3.75,10.84,6.74,2.31,2.23,4.21,1.3,6.58.49,4.03-1.37,7.6-3.54,12.58-1.29,7.05,3.2,13.05,7.12,14.69,14.85.98,4.62,3.59,6.38,7.19,8.02,10.89,4.97,12.62,13.32,10.4,23.08-1.3,5.71-9.64,11.53-15.89,11.55-33.33.08-66.66-.04-99.98.2-2.35.02-3.66-2.63-6-1.42"/>
  <path class="cls-1" d="m1598.71,522.84c.89-21.11.39-42.23.47-63.34.02-4.19-.31-8.38-.47-12.57-.05-1.4-.11-2.83,2-2.51"/>
  <path class="cls-1" d="m288.95,297.64c-4-1.51-8,.07-12,.04-15.83-.1-31.67.19-47.49-.16-6-.13-11.8-1.63-18.04-.62-6.5,1.05-13.34-1.17-19.96.74-.15.04-.34.05-.5,0-11.17-3.31-22.33,1.12-33.49-.01-2.78-.28-4.36,1.17-4.93,3.55-.5,2.1-1.12,4.6-.44,6.47,2.52,6.92-.71,13.85.45,20.64,1.08,6.31-.56,12.41-.63,18.61-.03,3.2,2.77,6.3.3,9.55"/>
  <path class="cls-1" d="m798.36,391.64h-8.5c-25,0-50.01-.61-74.98.25-13.19.45-26.33-.39-39.51-.01-14.29.41-28.65.82-42.99-.11-8.29-.54-16.66.17-24.99.39-3,.08-6-1.26-9-.02"/>
  <path class="cls-1" d="m1837.17,320.76c-6.83-.17-13.66-.5-20.5-.47-16,.07-31.99.36-47.99.44-5.66.03-11.33-.3-17-.47"/>
  <path class="cls-1" d="m1444.74,86c-8.83-2.29-16.53-6.21-22.59-13.49-5.49-6.59-9.47-21.48-5.91-31.92,3.22-9.42,10-13.86,16.5-19.43,2.59-2.22,5.89-2.61,9-2.95,19.51-2.14,32.45,5.54,38.27,21.63,5,13.81,1.34,32.15-15.67,40.86-6.24,3.19-12.42,4.69-19.11,5.31"/>
  <path class="cls-1" d="m329.94,454.98c1.41,6.62,7.07,10.34,10.54,15.56.57.85,1.53,1.64,2.48,1.99,10.1,3.71,29.03,5.01,36.59-6.42,1.77-2.67,4.58-5.06,7.45-6.49,9.87-4.95,10.83-14.26,10.7-23.23-.14-9.68-5.82-17.31-14.37-21.37-5.05-2.39-11.4-2.43-16.85.31-6.16,3.11-10.21,8.77-15.07,13.47-1.49,1.44-1.16,3.13-.89,4.55,1.51,8.01-2.56,15.86-10.09,18.57-3.07,1.1-6.28,1.89-9.49,2.51-4.08.79-11.54-5.77-11.96-10.52-.87-9.74,1.97-18.63,9.15-24.93,5.2-4.56,12.31-6.04,19.3-3.17,3.44,1.41,7.52,1.63,10.02,4.97"/>
  <path class="cls-1" d="m1750.18,523.85c1.17-4.69.01-9.38-.02-14.08-.06-8.21.72-16.39.14-24.64-.57-8.17-.12-16.41-.12-24.62v-74.4c0-8.21-1.01-16.59.28-24.59,1.32-8.16-1.44-16.08.38-24.25.78-3.49-1.23-8.04-.54-11.97,1.22-6.88-1.77-13.88.88-20.63-2.25-25.44-.38-50.94-1.02-76.41-.12-4.95-2.06-6.98-6.98-7.01-17.66-.08-35.33-.06-52.99.01-1.5,0-3.22.27-4.45,1.04-2.49,1.55-4.76,1.79-7.03-.09-1.54-1.27-3.29-.98-5.01-.98-48.99,0-97.98-.23-146.97.24-7.18.07-14.32.08-21.5-.11-16.49-.43-32.99-.14-49.49-.13-6.3,0-7.99,1.71-7.99,8.04-.01,15.25,0,30.5,0,45.74,0,6.03.97,12.27-.22,18.05-1.85,8.93,1.44,17.94-1.27,26.69,3.66,6.64-.8,13.87,1.49,20.61.1.3-.05.68.02,1,1.03,4.38-2.17,8.41-1.36,12.54.83,4.23,1.81,8.23.96,12.62-.43,2.23.39,4.67.37,7.02-.12,18.1-.43,36.19-.44,54.29,0,15.75.32,31.5.43,47.25.01,1.66.6,3.44-.46,5.03"/>
  <g>
    <path class="cls-2" d="m1486.01,340.48c-.29-.05-.46-.09-.49-.14-.03-.05-.11-.07-.24-.07-.01,0-.02-.04-.02-.11s-.06-.13-.17-.22c-.04-.04-.08-.34-.13-.91-.04-.57-.06-1.14-.06-1.72,0-2.02.08-4.26.24-6.71.12-1.83.27-2.74.46-2.74.03,0,.09-.05.19-.14.15-.14.37-.21.67-.21.13,0,.21.03.24.06s.07.05.09.06h.09c.05,0,.09.04.12.11.03.07.04.11.06.12.01,0,.03.02.05.06.03.03.06.07.1.11.07.08.11.18.11.29l-.02.11.02.27s.07-.02.16-.06c.82-.39,1.56-.59,2.24-.59s1.2.19,1.54.58c.11.14.23.3.35.48.07.14.11.34.11.59s-.04.5-.13.73c-.3.81-.82,1.55-1.55,2.22-.88.75-1.69,1.12-2.43,1.12-.13,0-.24-.01-.35-.04-.1-.02-.19-.04-.25-.04-.08,0-.13,1.13-.13,3.38,0,1.09.01,1.75.03,1.99.02.16.03.35.03.56-.01.16-.03.25-.07.28-.04.03-.06.07-.06.12s-.12.14-.36.27c0,0-.01-.01-.03-.01-.02,0-.04.02-.05.04-.04.04-.1.06-.18.07-.08,0-.13.02-.15.04s-.04.03-.05.03Zm1.79-8.35s.14-.05.33-.16c.31-.21.63-.51.94-.91s.53-.78.64-1.14c.02-.07.03-.12.03-.17,0-.07-.04-.1-.13-.1-.28,0-.66.11-1.13.32-.31.14-.61.33-.88.58-.32.29-.5.46-.52.52-.02.06-.03.15-.03.28,0,.21.06.31.19.31.06,0,.15.08.27.23.12.15.21.23.27.23Z"/>
    <path class="cls-2" d="m1501,336.2s-.14-.02-.3-.07c-.41-.1-.67-.44-.78-1.02-.05-.34-.09-1.26-.13-2.78,0-.67-.01-1.03-.03-1.07-.03,0-.18.23-.44.69-1.03,1.94-1.87,3.01-2.53,3.23-.21.09-.45.14-.72.14-.97,0-1.46-.72-1.46-2.16,0-.93.19-1.86.56-2.79.58-1.42,1.48-2.42,2.72-3,.33-.15.7-.22,1.08-.22.51,0,.96.11,1.33.32.19.08.29.13.31.13.09,0,.2.03.32.1.12.07.2.14.25.22.05.08.12.18.23.3.07.09.13.25.16.46.07.5.13,1.8.17,3.92.02,1.59.08,2.46.19,2.61.03.06.05.1.05.13,0,.02-.01.03-.03.04-.02,0-.03.02-.03.03,0,.02.01.04.03.08.02.03.03.06.03.09s-.02.06-.05.09c-.04.03-.06.08-.06.13s-.08.12-.24.22c-.05.04-.09.06-.11.06h-.02s-.06.02-.09.05c-.03.03-.08.05-.16.05s-.14,0-.16.03c-.02.02-.06.03-.11.03Zm-4.43-3.33c.17-.22.47-.73.91-1.52.93-1.68,1.4-2.56,1.4-2.62h-.02c-.53.14-1.04.66-1.52,1.52-.41.74-.66,1.61-.77,2.62Z"/>
    <path class="cls-2" d="m1506.53,335.07s-.06,0-.08-.01c-.06-.02-.15-.03-.25-.03s-.16-.02-.16-.06-.05-.07-.14-.08l-.14-.07s-.04-.08-.11-.2c-.18-.23-.28-.77-.3-1.6,0-1.67.21-3.12.64-4.35.19-.52.33-.79.42-.79.05,0,.13-.04.23-.13.1-.09.2-.14.31-.16.1-.02.28-.03.52-.03.05,0,.1.03.13.07.04.04.1.06.18.06.03,0,.06.03.08.08.02.05.08.13.17.25.09.11.14.22.14.32,0,.23-.02.36-.06.38-.02.04-.03.08-.03.11.05,0,.15-.1.3-.31.27-.35.6-.66.97-.95.61-.47,1.14-.7,1.6-.7.6,0,1.03.18,1.29.55l.3.41s-.01.06-.03.08c-.02.01-.03.03-.03.06,0,.02.01.04.03.07s.03.06.03.08c0,.02-.02.05-.05.08-.05.07-.08.12-.08.16s-.03.08-.09.1c-.06.02-.1.05-.12.09s-.05.06-.12.06-.09.01-.09.04-.04.04-.11.04-.14.01-.2.04c-.01.02-.03.03-.06.03s-.07,0-.11-.03c-.09-.03-.18-.04-.25-.04s-.13-.02-.16-.06c-.03-.04-.07-.06-.13-.06-.1,0-.25.09-.42.27-.92.88-1.73,2.31-2.42,4.3-.32.89-.56,1.41-.71,1.57-.1.11-.21.19-.33.24-.26.09-.45.14-.56.14Zm1.35-6.79s.03-.03.06-.08c.03-.05.05-.08.05-.09-.01,0-.03,0-.05.03-.02.02-.04.04-.06.06-.02.02-.02.03-.02.04,0,.03,0,.04.02.04Z"/>
    <path class="cls-2" d="m1517.05,336.63c-.09,0-.16,0-.2-.02-.04-.01-.07-.02-.09-.02h-.05s-.07-.02-.09-.07-.07-.07-.16-.07c-.04,0-.09-.04-.13-.13-.05-.08-.09-.15-.13-.2-.18-.24-.27-.73-.27-1.46-.01-.28-.02-.7-.02-1.26,0-2.14.14-4.6.41-7.36.08-.86.13-1.36.13-1.5,0-.1-.01-.17-.03-.2-.04-.12-.06-.29-.06-.49,0-.14.03-.28.1-.42.07-.14.12-.21.16-.21s.13-.05.27-.15c.14-.1.25-.16.34-.18.09-.02.18-.03.27-.03.18,0,.3.02.37.07.07.05.12.07.16.07s.08.04.12.11.1.15.2.25.14.26.14.49c0,.33-.06,1.04-.19,2.13-.24,2.41-.36,3.9-.36,4.48,0,.08,0,.13.02.14.02,0,.39-.29,1.1-.86.76-.63,1.2-1,1.32-1.11.21-.21.33-.31.35-.31s.1-.05.24-.14c.13-.09.24-.15.34-.16.09-.01.22-.02.39-.02.09,0,.16.02.2.06.04.04.08.06.11.06h.08s.05,0,.05.04c0,.09.09.22.27.38.02.03.03.08.03.15,0,.18-.03.32-.09.44-.13.23-.83.86-2.12,1.88-.74.58-1.12.89-1.15.93,0,0,.17.04.5.08.21,0,.56.06,1.07.15.72.15,1.34.33,1.85.53.22.09.33.16.33.21s.04.11.13.18c.13.12.19.21.19.25,0,.02-.02.03-.05.04-.03,0-.05.02-.05.03h0s.02.05.05.08.06.07.06.08c0,.02-.02.04-.05.07-.05.07-.08.12-.08.15s-.04.08-.13.15c-.22.19-.47.28-.74.28-.17,0-.43-.06-.8-.18-.71-.25-1.59-.42-2.64-.49-.41-.04-.67-.06-.79-.06-.04,0-.06.26-.06.77,0,.49.02.84.06,1.07.04.18.07.34.08.49,0,.15-.02.24-.05.27-.03.03-.05.06-.05.11s-.05.1-.15.17c-.1.07-.17.1-.2.1h-.03s-.04,0-.06.04c-.09.06-.24.08-.42.08Z"/>
    <path class="cls-2" d="m1533.87,335.92c-.67,0-1.23-.29-1.68-.87-.38-.48-.76-1.26-1.15-2.36-.24-.72-.38-1.08-.42-1.08-.03,0-.26.29-.67.86-.61.82-1.09,1.3-1.46,1.42-.19.06-.34.08-.46.08-.48,0-.84-.17-1.07-.5-.23-.33-.45-1.01-.66-2.03-.07-.41-.14-.66-.2-.73-.15-.18-.22-.71-.22-1.59,0-.54.06-.81.19-.81.09-.03.2-.09.31-.18.11-.09.18-.13.19-.13h.03s.04,0,.08-.03c.04-.02.1-.03.19-.03.2,0,.33.03.41.1.03.02.06.03.09.03h.08s.08.04.12.12c.04.08.1.17.19.27.09.1.13.16.13.18s.01.13.04.33c.03.2.05.42.09.67.15,1.22.25,1.83.31,1.83.03,0,.11-.08.24-.25.27-.35.5-.61.69-.79.19-.18.43-.35.71-.53.29-.17.58-.26.87-.26.36,0,.64.08.86.25.36.3.67.85.96,1.64.44,1.21.73,1.94.86,2.19.17.34.3.51.39.51.05,0,.15-.1.3-.31.42-.58.82-1.33,1.19-2.25.49-1.23.74-2.19.74-2.89,0-.3-.08-.52-.24-.66-.35-.35-.52-.69-.52-1.03,0-.21.05-.31.16-.31.05,0,.13-.05.24-.14.18-.15.39-.22.63-.22.13,0,.23.03.31.1.04.03.07.04.09.04h.02c.06,0,.23.15.5.44s.47.55.58.77c.09.18.14.55.14,1.12,0,1.04-.32,2.28-.96,3.72-.38.83-.76,1.52-1.15,2.05-.64.83-1.33,1.25-2.09,1.25Z"/>
    <path class="cls-2" d="m1547.34,336.2s-.14-.02-.3-.07c-.41-.1-.67-.44-.78-1.02-.05-.34-.09-1.26-.13-2.78,0-.67-.01-1.03-.03-1.07-.03,0-.18.23-.44.69-1.03,1.94-1.87,3.01-2.53,3.23-.21.09-.45.14-.72.14-.97,0-1.46-.72-1.46-2.16,0-.93.19-1.86.56-2.79.58-1.42,1.48-2.42,2.72-3,.33-.15.7-.22,1.08-.22.51,0,.96.11,1.33.32.19.08.29.13.31.13.09,0,.2.03.32.1.12.07.2.14.25.22.05.08.12.18.23.3.07.09.13.25.16.46.07.5.13,1.8.17,3.92.02,1.59.08,2.46.19,2.61.03.06.05.1.05.13,0,.02-.01.03-.03.04-.02,0-.03.02-.03.03,0,.02.01.04.03.08.02.03.03.06.03.09s-.02.06-.05.09c-.04.03-.06.08-.06.13s-.08.12-.24.22c-.05.04-.09.06-.11.06h-.02s-.06.02-.09.05c-.03.03-.08.05-.16.05s-.14,0-.16.03c-.02.02-.06.03-.11.03Zm-4.43-3.33c.17-.22.47-.73.91-1.52.93-1.68,1.4-2.56,1.4-2.62h-.02c-.53.14-1.04.66-1.52,1.52-.41.74-.66,1.61-.77,2.62Z"/>
    <path class="cls-2" d="m1553.4,342.08c-.62,0-1.06-.21-1.32-.65-.13-.18-.2-.37-.24-.59-.02-.15-.05-.29-.09-.41-.01-.02-.02-.05-.02-.08v-.06s0-.08-.02-.13c-.02-.05-.02-.1-.02-.15,0-.16.07-.28.22-.35.06-.02.14-.07.22-.14.18-.14.4-.21.66-.21.13,0,.23.02.31.07.08.05.14.07.17.07s.06.01.09.04c.03.02.05.06.07.1s.08.11.17.22c.09.1.14.22.14.34s.03.19.08.19.17-.09.36-.27c1.32-1.26,2.31-3.56,2.98-6.88.05-.31.1-.61.14-.91.04-.29.07-.51.09-.65.02-.14.02-.23.02-.28,0-.04,0-.06-.02-.06,0,0-.04.07-.11.17s-.16.22-.25.37c-.8,1.19-1.41,1.94-1.85,2.25-.44.31-.92.46-1.44.46-1.23-.05-1.85-1.03-1.85-2.96,0-.95.12-1.84.36-2.68.15-.53.28-.8.39-.8.05,0,.13-.05.24-.14.1-.09.19-.14.25-.14s.11,0,.13-.03c.03-.02.08-.03.15-.03.08,0,.16,0,.24.03s.12.04.14.08c.02.03.05.05.09.05l.09-.03s.05.02.05.06.05.12.16.22c.1.11.16.22.16.34,0,.09-.04.3-.13.63-.24.82-.36,1.68-.36,2.55,0,.6.04.95.11,1.04,0,.02,0,.03.02.03.1,0,.58-.62,1.43-1.87.65-.95,1.09-1.52,1.32-1.73.46-.44.91-.66,1.35-.66s.72.14.89.41c.13.17.22.32.28.45.06.13.1.29.13.46.02.18.03.42.03.73-.01,1.36-.22,2.81-.62,4.37-.4,1.56-.93,2.94-1.58,4.15-.56,1.03-1.19,1.79-1.88,2.27-.69.48-1.33.72-1.94.72Z"/>
    <path class="cls-2" d="m1583.8,337.57s-.07,0-.1-.02c-.04-.01-.11-.02-.21-.02-.07-.02-.12-.05-.15-.08-.03-.04-.07-.06-.13-.06-.12-.04-.25-.21-.4-.53s-.27-.67-.35-1.07c-.03-.17-.05-.64-.05-1.42,0-.99.09-2.13.27-3.42l.05-.48-.42.55c-.31.45-.59.75-.83.91s-.53.24-.88.24c-.56,0-.93-.27-1.08-.81-.01-.07-.03-.1-.05-.1-.04.02-.09.08-.16.2-.9,1.41-1.43,2.22-1.6,2.43-.36.44-.77.66-1.24.66-.44,0-.76-.15-.96-.45-.27-.4-.41-1.17-.41-2.3v-.83c0-1.05.02-1.68.05-1.89.07-.38.16-.58.27-.58.05,0,.13-.04.24-.13s.22-.15.34-.2c.08-.02.2-.03.35-.03.12,0,.19.04.24.08.08.04.14.06.17.06.07,0,.11.03.11.09s.12.2.35.43c-.04.75-.09,1.15-.13,1.21-.05.06-.07.49-.07,1.3,0,.08,0,.13.02.13.04,0,.18-.19.42-.56.67-1,1.16-1.61,1.48-1.84l.53-.34c.1-.05.3-.07.6-.07.36,0,.62.12.78.37.19.28.3.42.33.42.05-.05.23-.28.52-.7.86-1.2,1.51-1.83,1.95-1.91.1-.02.2-.03.3-.03.1,0,.21.01.33.04.21.05.34.12.39.22.02.07.09.16.2.28.11.12.17.31.17.56,0,.35-.08,1.05-.24,2.12-.24,1.75-.38,2.93-.41,3.55,0,.16,0,.32-.02.47s-.02.36-.02.61c0,.73.12,1.35.35,1.87.04.08.06.15.06.18,0,.02,0,.03-.02.04-.02,0-.02.02-.02.04,0,.02.01.05.03.08.02.04.03.07.03.1,0,.02-.02.05-.06.08-.04.04-.06.08-.06.11s-.07.12-.2.24l-.13.04s0-.01-.02-.01-.04.02-.08.06c-.04.04-.1.06-.17.06s-.13.01-.2.04c-.01,0-.03.01-.05.01Z"/>
    <path class="cls-2" d="m1591.59,335.97c-.63,0-1.18-.12-1.65-.37-1.05-.53-1.57-1.53-1.57-3,0-.86.13-1.61.38-2.26.48-1.31,1.22-2.29,2.21-2.93.66-.45,1.28-.67,1.85-.67.63,0,1.09.21,1.4.62.19.23.3.42.33.56.01.08.02.17.02.28,0,.21-.02.4-.07.55-.05.15-.14.36-.29.62-.54.97-1.34,1.66-2.39,2.06-.42.15-.8.22-1.15.22h-.22c-.07-.01-.11.31-.11.96,0,1.17.44,1.75,1.32,1.75.42,0,.86-.11,1.32-.34.26-.12.46-.24.58-.36.17-.18.34-.33.51-.46.17-.13.29-.2.35-.2s.1-.01.13-.04.09-.04.17-.04c.21.02.33.05.35.09.03.04.05.06.09.06l.11-.03s.05.02.05.05.05.12.16.26c.1.11.16.23.16.37-.03.59-.63,1.16-1.8,1.7-.81.36-1.55.53-2.23.53Zm-.55-5.97c.05,0,.16-.05.33-.15.43-.27.79-.67,1.08-1.21l.06-.18s-.01-.03-.03-.03c-.06,0-.21.1-.46.3s-.48.47-.72.79c-.2.27-.3.42-.3.45,0,.02.01.03.03.03Z"/>
    <path class="cls-2" d="m1605.29,336.63c-.06,0-.12,0-.17-.03-.05-.02-.12-.03-.2-.03h-.06s-.03-.02-.03-.05c0-.03-.06-.06-.16-.08-.44-.2-.66-.91-.66-2.15,0-1.06.08-2.26.24-3.62-.1.21-.26.55-.46,1-.81,1.87-1.5,3.03-2.09,3.48-.26.2-.51.31-.75.35-.1.02-.24.03-.39.03-1.05,0-1.57-.83-1.57-2.49,0-.79.13-1.62.39-2.48.46-1.44,1.19-2.48,2.2-3.13.54-.35,1.09-.54,1.65-.58l.38-.03c.94-2.99,1.48-4.6,1.6-4.84.09-.19.18-.3.27-.34.04,0,.09-.03.14-.07.26-.18.49-.27.69-.27.21,0,.33.03.38.08.02.02.07.03.13.03s.12.04.14.11c.03.08.08.15.17.22.11.12.17.32.17.6,0,.23-.03.62-.09,1.15-.83,5.48-1.25,9.12-1.26,10.89,0,.45.07.83.2,1.14.04.1.06.17.06.21,0,.02,0,.03-.02.04-.02,0-.02.02-.02.03,0,.02.01.05.03.08.02.04.03.07.03.1,0,.02-.02.04-.05.07-.03.03-.05.07-.05.12s-.07.12-.2.22c-.05.04-.12.07-.2.08-.19.08-.33.13-.42.13Zm-4.35-3.47c.45-.83.84-1.66,1.18-2.47.55-1.34.83-2.05.83-2.13-.06,0-.2.09-.41.28-.1.09-.19.19-.27.28-.63.75-1.05,1.77-1.27,3.06-.04.26-.06.59-.06.98Z"/>
    <path class="cls-2" d="m1611.36,335.34c-.05,0-.1,0-.14-.02-.04-.01-.08-.02-.12-.03-.04,0-.07,0-.11,0s-.07-.02-.09-.06-.05-.06-.09-.06h-.06c-.05,0-.09-.03-.13-.1-.03-.07-.07-.12-.13-.17-.17-.2-.31-1.09-.42-2.68-.03-.67-.05-1.49-.05-2.44,0-1.17.01-1.82.03-1.95.06-.23.12-.35.17-.35s.14-.05.27-.15c.13-.1.21-.15.25-.15s.07,0,.11-.03.1-.03.18-.04c.07,0,.15,0,.23.03s.14.04.2.07c.05.03.1.04.13.04s.07.02.09.06c.02.04.04.08.07.12.03.04.11.13.24.27,0,2.6.02,4.2.05,4.79.04.59.1,1.09.18,1.5.04.22.06.44.06.66,0,.09-.01.15-.03.17-.03,0-.05.03-.05.08s-.07.13-.22.25c-.05.05-.09.07-.1.07s-.04,0-.07.01c-.23.09-.38.14-.46.14Zm-.3-9.24c-.08,0-.15,0-.2-.01-.05,0-.11-.01-.2-.01-.01-.03-.02-.06-.04-.09-.02-.03-.06-.05-.14-.05s-.12-.04-.13-.13-.04-.13-.1-.14c-.07-.04-.11-.16-.11-.38s.02-.37.05-.51c.09-.34.19-.5.28-.5.05,0,.13-.05.24-.14.19-.14.4-.21.63-.21.13,0,.22.03.28.1.03.04.08.06.15.06s.1.02.1.07.05.12.15.22c.1.1.15.21.15.33,0,.19-.03.38-.08.56-.15.49-.32.73-.53.73h-.03s-.03.02-.03.06-.15.06-.44.06Z"/>
    <path class="cls-2" d="m1618.27,336.04c-.94,0-1.65-.37-2.12-1.09-.33-.53-.5-1.18-.5-1.94,0-1.36.48-2.77,1.44-4.25.43-.62.95-1.15,1.55-1.59.78-.56,1.52-.86,2.2-.9h.39c.9-.01,1.45.15,1.65.48.05.09.1.16.14.2.12.07.19.16.19.28,0,.03,0,.04-.02.05s-.02.02-.02.05c0,.02.01.05.03.09.02.04.03.08.03.11s0,.05-.03.06c-.03.06-.05.11-.05.15s-.07.11-.22.22c-.06.04-.11.06-.15.06s-.07.01-.1.04c-.05.07-.18.1-.39.1-.18,0-.39-.06-.63-.17-.17-.08-.34-.11-.53-.11-.75,0-1.51.54-2.26,1.63-.45.67-.77,1.31-.97,1.94s-.3,1.16-.3,1.6c0,.14.01.28.03.41.08.68.32,1.03.72,1.03.52,0,1.28-.43,2.26-1.28.54-.48.84-.85.89-1.12.05-.27.11-.41.2-.41h.03s.12-.05.23-.15c.11-.1.18-.15.2-.15h.06s.03,0,.05-.02c.02-.01.05-.02.09-.02.26,0,.41.02.45.06.04.04.09.06.16.06s.11.02.12.06c0,.04.04.09.08.13.18.23.27.38.27.42l-.02.24c0,.52-.45,1.16-1.32,1.9-1.42,1.24-2.7,1.85-3.83,1.85Z"/>
    <path class="cls-2" d="m1633.18,336.2s-.14-.02-.3-.07c-.41-.1-.67-.44-.79-1.02-.05-.34-.09-1.26-.12-2.78,0-.67-.01-1.03-.03-1.07-.03,0-.18.23-.44.69-1.03,1.94-1.87,3.01-2.53,3.23-.21.09-.45.14-.72.14-.97,0-1.46-.72-1.46-2.16,0-.93.19-1.86.57-2.79.58-1.42,1.48-2.42,2.71-3,.33-.15.7-.22,1.08-.22.51,0,.96.11,1.33.32.19.08.29.13.31.13.09,0,.2.03.32.1.12.07.2.14.25.22.05.08.12.18.23.3.07.09.13.25.16.46.07.5.13,1.8.17,3.92.02,1.59.08,2.46.19,2.61.03.06.05.1.05.13,0,.02-.01.03-.03.04-.02,0-.03.02-.03.03,0,.02.01.04.03.08.02.03.03.06.03.09s-.02.06-.06.09c-.04.03-.05.08-.05.13s-.08.12-.24.22c-.05.04-.09.06-.11.06h-.02s-.06.02-.09.05c-.03.03-.08.05-.17.05s-.14,0-.16.03c-.02.02-.06.03-.11.03Zm-4.43-3.33c.17-.22.47-.73.91-1.52.93-1.68,1.4-2.56,1.4-2.62h-.02c-.53.14-1.04.66-1.52,1.52-.41.74-.66,1.61-.77,2.62Z"/>
    <path class="cls-2" d="m1638.88,336.52c-.32-.02-.55-.07-.68-.14s-.24-.21-.34-.39c-.22-.44-.33-1.88-.33-4.31,0-1.48.04-2.66.13-3.55.08-.89.26-2,.53-3.33.16-.81.24-1.33.24-1.56.01-.4.07-.6.19-.6.05,0,.12-.04.2-.13.17-.15.41-.22.72-.22.14,0,.23.03.28.07.02.04.06.06.13.06s.11.04.13.11c.03.07.09.15.19.24.1.09.15.24.15.44,0,.32-.14,1.2-.42,2.65-.33,1.73-.5,3.46-.5,5.18,0,2.68.06,4.16.19,4.44.03.07.05.13.05.18,0,0,0,.02-.02.03-.01,0-.02.02-.02.04v.04c.03.08.05.14.05.17,0,.02-.02.04-.05.07s-.05.06-.05.1c0,.08-.13.19-.38.31-.1.05-.19.07-.25.07s-.11.01-.14.04Z"/>
    <path class="cls-2" d="m1658.72,336.04c-.94,0-1.65-.37-2.12-1.09-.33-.53-.5-1.18-.5-1.94,0-1.36.48-2.77,1.44-4.25.43-.62.95-1.15,1.55-1.59.78-.56,1.52-.86,2.2-.9h.39c.9-.01,1.45.15,1.65.48.05.09.1.16.14.2.12.07.19.16.19.28,0,.03,0,.04-.02.05s-.02.02-.02.05c0,.02.01.05.03.09.02.04.03.08.03.11s0,.05-.03.06c-.03.06-.05.11-.05.15s-.07.11-.22.22c-.06.04-.11.06-.15.06s-.07.01-.1.04c-.05.07-.18.1-.39.1-.18,0-.39-.06-.63-.17-.17-.08-.34-.11-.53-.11-.75,0-1.51.54-2.26,1.63-.45.67-.77,1.31-.97,1.94-.2.63-.3,1.16-.3,1.6,0,.14,0,.28.03.41.08.68.32,1.03.72,1.03.52,0,1.28-.43,2.26-1.28.54-.48.84-.85.89-1.12.05-.27.11-.41.2-.41h.03s.12-.05.23-.15c.11-.1.18-.15.2-.15h.06s.03,0,.05-.02c.02-.01.05-.02.09-.02.26,0,.41.02.45.06.04.04.09.06.16.06s.11.02.12.06c0,.04.04.09.08.13.18.23.27.38.27.42l-.02.24c0,.52-.45,1.16-1.32,1.9-1.42,1.24-2.7,1.85-3.83,1.85Z"/>
    <path class="cls-2" d="m1670.46,335.97c-.63,0-1.18-.12-1.65-.37-1.05-.53-1.57-1.53-1.57-3,0-.86.13-1.61.38-2.26.48-1.31,1.22-2.29,2.21-2.93.66-.45,1.28-.67,1.85-.67.63,0,1.09.21,1.4.62.19.23.3.42.33.56.01.08.02.17.02.28,0,.21-.02.4-.07.55s-.14.36-.29.62c-.54.97-1.34,1.66-2.38,2.06-.42.15-.8.22-1.15.22h-.22c-.07-.01-.11.31-.11.96,0,1.17.44,1.75,1.32,1.75.42,0,.86-.11,1.32-.34.26-.12.46-.24.58-.36.17-.18.34-.33.51-.46.17-.13.29-.2.34-.2s.1-.01.13-.04.09-.04.17-.04c.21.02.33.05.35.09.03.04.06.06.09.06l.11-.03s.05.02.05.05.05.12.16.26c.1.11.16.23.16.37-.03.59-.63,1.16-1.8,1.7-.81.36-1.55.53-2.23.53Zm-.55-5.97c.05,0,.16-.05.33-.15.43-.27.79-.67,1.08-1.21l.06-.18s-.01-.03-.03-.03c-.06,0-.21.1-.46.3-.24.2-.48.47-.72.79-.2.27-.3.42-.3.45,0,.02.01.03.03.03Z"/>
    <path class="cls-2" d="m1684.01,336.89s-.06,0-.09-.01c-.03,0-.06-.02-.1-.03-.16,0-.25-.04-.27-.09-.02-.05-.07-.08-.13-.08s-.16-.1-.27-.29c-.26-.45-.4-1.03-.42-1.74v-.62c0-.59,0-1.03.02-1.32.15-1.44.22-2.3.22-2.57-.08,0-.56.71-1.44,2.12-.64,1.05-1.1,1.67-1.38,1.85-.23.15-.53.24-.91.28h-.06c-.09-.03-.17-.04-.22-.04-.72-.08-1.08-.93-1.08-2.54,0-.61.06-1.37.19-2.29.09-.64.2-.96.33-.96.06,0,.14-.05.24-.15.12-.08.19-.13.22-.13h.06s.02,0,.04-.03.07-.03.15-.03c.21,0,.34.02.39.07.05.05.12.07.19.07h.05s.05,0,.05.06.05.12.16.23.16.25.16.41c0,.15-.03.41-.08.79-.12.74-.17,1.24-.17,1.49v.04s.06-.07.14-.2c1.05-1.64,1.81-2.7,2.31-3.2.13-.12.3-.25.52-.39.36-.23.67-.35.96-.35.37,0,.65.13.85.38.24.32.37.56.38.72v.77c0,.63-.05,1.38-.14,2.27-.11,1.32-.16,2.24-.16,2.75,0,.64.07,1.14.2,1.5.05.16.08.3.09.44,0,.13-.02.22-.06.26s-.06.08-.06.13-.05.1-.14.17c-.09.07-.16.1-.19.1s-.06.02-.09.05c-.03.03-.08.05-.17.05s-.15,0-.17.03-.05.03-.07.03Z"/>
    <path class="cls-2" d="m1690.61,336.56c-.23,0-.46-.04-.69-.13-.64-.22-1.07-.95-1.3-2.2-.06-.38-.09-1.16-.09-2.33,0-2.1.13-3.8.39-5.11l.02-.13h-.02s-.05,0-.09.01c-.04.02-.1.03-.18.04-.08,0-.17.01-.27.01-.24,0-.44-.04-.6-.13s-.24-.15-.24-.19v-.04s-.03-.08-.08-.11c-.08-.08-.12-.22-.12-.45,0-.2.11-.36.33-.49.29-.22.69-.39,1.18-.53l.49-.15.16-.59c.32-1.26.57-1.91.74-1.94.07-.02.16-.07.25-.15.14-.12.32-.18.55-.18.19,0,.32.02.39.06.07.04.13.06.17.06s.06.02.07.06c.01.04.07.13.19.26.09.08.14.17.14.27,0,.16-.02.28-.06.37-.25.63-.41,1.1-.49,1.43,0,0,.08.01.24.01h.6c.62-.01.99,0,1.13.03.29.04.57.12.82.24.09.06.14.1.14.13s.04.09.12.2c.13.11.19.19.19.24,0,.03-.02.05-.05.06-.03,0-.05.02-.05.04,0,0,.02.03.05.07.04.04.05.07.05.08,0,.02-.01.04-.04.06s-.04.06-.04.12c0,.11-.16.24-.49.38-.14.06-.26.08-.36.08-.23,0-.44-.03-.64-.1-.06-.02-.2-.03-.4-.04s-.43,0-.67,0c-.59.02-.9.05-.95.09s-.14.54-.29,1.5c-.22,1.42-.33,2.91-.33,4.45,0,.94.02,1.57.06,1.91.03.31.12.66.25,1.05.24-.04.41-.06.5-.06.17,0,.27.02.31.07.04.05.09.07.16.07s.11.01.12.04c.01.08.06.17.15.27.09.09.13.16.13.2,0,.03,0,.05-.02.08s-.02.05-.02.08,0,.05.03.06c.02,0,.03.02.03.04,0,.02-.01.05-.03.11-.02.05-.06.11-.11.18s-.11.13-.17.18c-.41.25-.82.38-1.24.38Z"/>
    <path class="cls-2" d="m1698.01,335.97c-.63,0-1.18-.12-1.65-.37-1.05-.53-1.57-1.53-1.57-3,0-.86.13-1.61.38-2.26.48-1.31,1.22-2.29,2.21-2.93.66-.45,1.28-.67,1.85-.67.63,0,1.09.21,1.4.62.19.23.3.42.33.56.01.08.02.17.02.28,0,.21-.02.4-.07.55s-.14.36-.29.62c-.54.97-1.34,1.66-2.38,2.06-.42.15-.8.22-1.15.22h-.22c-.07-.01-.11.31-.11.96,0,1.17.44,1.75,1.32,1.75.42,0,.86-.11,1.32-.34.26-.12.46-.24.58-.36.17-.18.34-.33.51-.46.17-.13.29-.2.34-.2s.1-.01.13-.04.09-.04.17-.04c.21.02.33.05.35.09.03.04.06.06.09.06l.11-.03s.05.02.05.05.05.12.16.26c.1.11.16.23.16.37-.03.59-.63,1.16-1.8,1.7-.81.36-1.55.53-2.23.53Zm-.55-5.97c.05,0,.16-.05.33-.15.43-.27.79-.67,1.08-1.21l.06-.18s-.01-.03-.03-.03c-.06,0-.21.1-.46.3-.24.2-.48.47-.72.79-.2.27-.3.42-.3.45,0,.02.01.03.03.03Z"/>
    <path class="cls-2" d="m1706.58,335.07s-.06,0-.08-.01c-.06-.02-.15-.03-.25-.03s-.16-.02-.16-.06-.05-.07-.14-.08l-.14-.07s-.04-.08-.11-.2c-.18-.23-.28-.77-.3-1.6,0-1.67.21-3.12.64-4.35.19-.52.33-.79.42-.79.05,0,.13-.04.23-.13s.2-.14.31-.16c.1-.02.28-.03.52-.03.05,0,.1.03.13.07.04.04.1.06.18.06.03,0,.06.03.08.08.02.05.08.13.17.25.09.11.14.22.14.32,0,.23-.02.36-.06.38-.02.04-.03.08-.03.11.05,0,.15-.1.3-.31.27-.35.6-.66.97-.95.61-.47,1.14-.7,1.6-.7.6,0,1.03.18,1.29.55l.3.41s-.01.06-.03.08c-.02.01-.03.03-.03.06,0,.02.01.04.03.07.02.03.03.06.03.08,0,.02-.02.05-.05.08-.05.07-.08.12-.08.16s-.03.08-.09.1c-.06.02-.1.05-.12.09s-.05.06-.12.06-.09.01-.09.04-.04.04-.11.04-.14.01-.2.04c-.01.02-.03.03-.06.03s-.07,0-.11-.03c-.09-.03-.18-.04-.25-.04s-.13-.02-.16-.06-.07-.06-.12-.06c-.11,0-.25.09-.42.27-.92.88-1.73,2.31-2.42,4.3-.33.89-.56,1.41-.71,1.57-.1.11-.21.19-.33.24-.26.09-.45.14-.57.14Zm1.35-6.79s.03-.03.06-.08.05-.08.05-.09c-.01,0-.03,0-.05.03-.02.02-.04.04-.05.06-.02.02-.02.03-.02.04,0,.03,0,.04.02.04Z"/>
  </g>
</svg>